<svg xmlns="http://www.w3.org/2000/svg" viewBox="0 0 118.28 131.53"><defs><style>.cls-1{fill:#ea8642;}.cls-2{fill:#fff;}.cls-3{fill:#54bbd3;}.cls-4{fill:#38332d;}</style></defs><title>Asset 43</title><g id="Layer_2" data-name="Layer 2"><g id="Layer_1-2" data-name="Layer 1"><path class="cls-1" d="M38.57,102.82s18.24,4.19,43.56.87c0,0,8.07,2,20.41,8.08,5.82,2.86,11.36,7.77,15.75,19.77H1.12A31.62,31.62,0,0,1,14.18,112.9C20.45,108.86,35.62,104.74,38.57,102.82Z"/><path class="cls-2" d="M14.35,112.76l-.17.1A28.67,28.67,0,0,0,9.13,117H109.86a25.32,25.32,0,0,0-5.41-4.25Z"/><path class="cls-2" d="M116.72,127.64a46.44,46.44,0,0,0-2.4-4.67H4.62a33.47,33.47,0,0,0-2.28,4.67Z"/><path class="cls-3" d="M59.14.05c-34.44,1.66-55,25.75-31.22,107,0,0,12.75-4.5,15.75-9.25,3.45-5.45,3-19.75,3-19.75-4.78-4-7.06-10.12-9.31-15.7a45.05,45.05,0,0,1-1.7-4.81c-3.76.22-6.59-4.67-7.21-7.91C27,42,31.64,42,34.59,42.86a25.05,25.05,0,0,1,2.15-6.81c1.47-3,4.47-3.53,7-2.51,2.71-4.79,8.45-7.94,14.27-8.38a16.13,16.13,0,0,1,15,7,16.3,16.3,0,0,1,2.53,3.38,6.26,6.26,0,0,1,6.4,2.79,11,11,0,0,1,1.39,4.54c3-.79,7.52-.67,6.06,6.83-.61,3.14-3.35,7.93-6.9,8a22.14,22.14,0,0,1-2.25,9c-1.94,3.79-4.13,8.55-8.08,11.55,0,0-.5,16.75,4.75,21,3.46,2.8,15.5,8.75,15.5,8.75S116.17-2.7,59.14.05Z"/><path class="cls-4" d="M53.65,79.55c-7.81-1.5-12.57-8.86-15-15.87A69.15,69.15,0,0,1,35.4,41.21c0-1-1.52-.8-1.52.18a70.63,70.63,0,0,0,3.6,23.55c1.7,4.81,4.41,9.44,8.36,12.47-.06,3.47.14,6.95-.16,10.41a19.25,19.25,0,0,1-4.54,10.91c-4.42,5.18-11.3,6.88-17.5,8.89s-11.8,4.78-16.18,9.75A35.06,35.06,0,0,0,0,131.53H1.45a35.77,35.77,0,0,1,3.22-7.79,29.65,29.65,0,0,1,14.85-13.16A96.61,96.61,0,0,1,32,106.28C44.75,103,46.84,91.9,47.17,86.52c.17-2.71,0-5.43.06-8.14a19.47,19.47,0,0,0,6.19,2.69C54.4,81.26,54.62,79.74,53.65,79.55Z"/><path class="cls-4" d="M110.83,117.38c-4.38-5-10-7.74-16.17-9.75s-13.09-3.71-17.5-8.89a19.23,19.23,0,0,1-4.54-10.91c-.27-3.07-.14-6.16-.15-9.24C77.39,75.15,80.35,69.05,82,63a73.07,73.07,0,0,0,1.51-28.37c-.13-1-1.61-.56-1.48.41a73,73,0,0,1-1.26,26.59c-2,8.39-6.73,18-16.42,18.59-1,.06-1,1.59,0,1.54a16,16,0,0,0,6.74-2.31c0,2.36-.09,4.71.06,7.07.7,11.33,6.08,17.32,16.53,20.43a116.68,116.68,0,0,1,11.13,3.63,29.64,29.64,0,0,1,14.85,13.16,35.62,35.62,0,0,1,3.22,7.79h1.45A35.06,35.06,0,0,0,110.83,117.38Z"/><path class="cls-1" d="M76.77,53.79c4.76,3.05-4.83,8.36-7.74,4.88S74.09,52.07,76.77,53.79Z"/><path class="cls-1" d="M42.33,54.61c-4.93,3.16,5,8.66,8,5.06S45.11,52.83,42.33,54.61Z"/><path class="cls-4" d="M53.67,50.06C50.9,45,42.41,44.83,38.91,49.2c-.57.71.43,1.74,1,1a7.49,7.49,0,0,1,4.27-2.49c-.49,1.54.19,3.51,1.9,3.85,1.9.37,3-1.55,2.58-3.21a2.21,2.21,0,0,0-.21-.56,6.27,6.27,0,0,1,4,3C52.87,51.6,54.11,50.88,53.67,50.06Z"/><path class="cls-4" d="M60.54,63.09c-1.64.06-3.72.05-3.87-2a19.88,19.88,0,0,1,.67-4.61,17.6,17.6,0,0,0-.63-8.35c-2.35-7.34-12.09-8.36-17.81-4.38-.75.52,0,1.77.72,1.24,3.32-2.3,8.67-3.1,12.18-.89,5.13,3.23,4.11,10.34,3.38,15.43-.55,3.82,1.75,5.3,5.37,5.17C61.57,64.65,61.57,63.05,60.54,63.09Z"/><path class="cls-4" d="M62.79,50.06c2.77-5.09,11.26-5.23,14.77-.86.57.71-.44,1.74-1,1a7.49,7.49,0,0,0-4.27-2.49c.5,1.54-.19,3.51-1.9,3.85-1.9.37-3-1.55-2.58-3.21A2.21,2.21,0,0,1,68,47.8a6.27,6.27,0,0,0-4,3C63.59,51.6,62.35,50.88,62.79,50.06Z"/><path class="cls-4" d="M61.92,45.43c3.86-5.1,11-5.17,16.06-1.69.75.52,0,1.77-.73,1.24C73,42,66.55,41.66,63.16,46.16,62.61,46.89,61.36,46.17,61.92,45.43Z"/><path class="cls-4" d="M64.44,68.44a12.69,12.69,0,0,1-10.61-.27c-.9-.48-1.83.82-.92,1.31a14.41,14.41,0,0,0,12.22.4C66.09,69.5,65.39,68.06,64.44,68.44Z"/><path class="cls-3" d="M33.88,41.39S54.76,37.68,59,27.2c0,0,6,11.28,25.08,13.29,0,0,15.23-37.59-25.29-37.66C17.84,2.76,33.88,41.39,33.88,41.39Z"/></g></g></svg>