<svg xmlns="http://www.w3.org/2000/svg" viewBox="0 0 125.65 141.51"><defs><style>.cls-1{fill:#ea8642;}.cls-2{fill:#54bbd3;}.cls-3{fill:#38332d;}</style></defs><title>Asset 40</title><g id="Layer_2" data-name="Layer 2"><g id="Layer_1-2" data-name="Layer 1"><polygon class="cls-1" points="62.98 111.17 58.63 120.49 61.7 122.51 69.05 122.51 72.14 118.69 65.76 110.67 62.98 111.17"/><path class="cls-2" d="M37.14,48.27c1.71-5.82,1.62-20.83,9.21-22.74,3.16-.8,14,8,28.9,0,5.94-3.17,12,17.39,13.08,20.3l.48-2.65,2.78-2.08S103.15-.79,61.58,0,31.92,41.43,31.92,41.43,36.52,40.74,37.14,48.27Z"/><path class="cls-3" d="M118.67,123.81c-4.6-5.22-12-7.92-18.52-10-5.1-1.65-10.62-3-15-6.16a.81.81,0,0,0-.65-.4,18.46,18.46,0,0,1-2.74-2.57A20.25,20.25,0,0,1,77,93.17c-.28-3.23-.14-6.48-.16-9.72,5.19-3.61,8.29-10,10-16.37a75.07,75.07,0,0,0,2.1-24.71,15.43,15.43,0,0,1-1.56.58,76.24,76.24,0,0,1-1.84,22.69c-2.12,8.82-7.07,18.53-17.26,19.12-1,.06-1,1.67,0,1.61a16.43,16.43,0,0,0,7.09-2c0,2.48-.09,5,.06,7.43a25.12,25.12,0,0,0,2,8.57h0c-4.42,3.25-8.59,6.84-13.34,9.61-5.53-2.72-11.24-5-16.73-7.83a24.44,24.44,0,0,0,2.9-10.36c.18-2.85,0-5.71.06-8.56a17.55,17.55,0,0,0,6.09,2.41c1,.2,1.26-1.4.24-1.59-8.21-1.57-12.8-8.89-15.34-16.27s-3.44-15.7-3.42-23.62c0-1-1.6-.84-1.6.19a74.23,74.23,0,0,0,3.78,24.76c1.79,5.06,4.64,9.92,8.79,13.11-.07,3.65.15,7.3-.17,10.94a20.22,20.22,0,0,1-4.77,11.47C39.26,110.08,32,111.87,25.5,114S11.58,118.58,7,123.81c-3.09,3.51-5.44,8.71-7,11.71H1.56c.69,0,1.52-3.27,2.5-5,3.54-6.35,10.42-10.86,17.12-13.62,6.26-2.57,13.1-3.61,18.92-7.21.14-.09.27-.1.41-.19,4.57,5.38,11.67,7.37,16.81,12.05a.83.83,0,0,0,1.37-.51,98.18,98.18,0,0,0,5.85-9l.3.16a.79.79,0,0,0,.13.28c2,2.8,4.35,5.38,6.38,8.17a.83.83,0,0,0,.34.28l0,0,.07,0a.76.76,0,0,0,.8-.15c4.13-3.73,7.78-7.95,11.88-11.71.35.25.71.49,1.08.72,5.82,3.6,12.66,4.74,18.92,7.32,6.71,2.76,13.58,7.06,17.12,13.41,1,1.74,1.81,5,2.5,5h1.56C124.11,132.51,121.77,127.32,118.67,123.81Zm-61-4.05c-5-4.13-11.51-6.19-15.83-11.12a20.73,20.73,0,0,0,4.7-5.08c5.45,2.77,11.11,5.07,16.59,7.76A93.11,93.11,0,0,1,57.65,119.75ZM72.14,119c-1.88-2.5-3.95-4.86-5.79-7.4a.83.83,0,0,0-.23-.22.66.66,0,0,0-.35-.57c4.36-2.66,8.26-6,12.37-9a20.65,20.65,0,0,0,5.06,6.25C79.39,111.6,75.94,115.5,72.14,119Z"/><path class="cls-3" d="M82.5,45.12c-4.52-3-10.78-2.69-15.36,0a1,1,0,0,0,1.06,1.81c4-2.33,9.34-2.58,13.25,0C82.58,47.68,83.63,45.86,82.5,45.12Z"/><path class="cls-3" d="M66.27,62.91c-2.12.13-5.05.33-5.87-2.13-.48-1.44-.16-4.63-.06-6.11.27-4.12-.56-10.27-5.27-11.35A21.42,21.42,0,0,0,42,45.25a1,1,0,0,0,1.06,1.81c3-1.74,7.94-2.25,11.29-1.46C59,46.68,59,51.44,58.85,55.27c0,1.14-.1,3.71,0,4.84C59.22,64,63,64.5,66.27,64.3,67.17,64.25,67.17,62.85,66.27,62.91Z"/><path class="cls-3" d="M81.31,51.28C76.87,47.36,72,48,66.88,50.3c-.81.36-.42,1.7.41,1.34a23.5,23.5,0,0,1,3.93-1.39,4,4,0,0,0,.19,1.69,3,3,0,0,0,1.44,1.51,2.15,2.15,0,0,0,2.62-.18,3.34,3.34,0,0,0,.83-3.16,9.43,9.43,0,0,1,4.07,2.18C81,52.89,82,51.88,81.31,51.28Z"/><path class="cls-3" d="M43.18,52.29a9.43,9.43,0,0,1,4.07-2.18,3.35,3.35,0,0,0,.83,3.16,2.15,2.15,0,0,0,2.62.18,3,3,0,0,0,1.43-1.51,4,4,0,0,0,.19-1.69,23.56,23.56,0,0,1,3.93,1.39c.82.37,1.21-1,.4-1.34-5.11-2.27-10-2.94-14.44,1C41.54,51.88,42.51,52.89,43.18,52.29Z"/><path class="cls-3" d="M72,70.78a20.82,20.82,0,0,1-17.39-.94c-.87-.44-1.66.86-.79,1.3a22.27,22.27,0,0,0,18.55,1.11C73.25,71.91,72.88,70.44,72,70.78Z"/><path class="cls-3" d="M88.48,42.61c-.77.59,0,1.91.77,1.31,4.67-3.59,5.63,1.56,5.54,5.38-.1,4.53-2.12,9.9-7.19,10.43-1,.1-1,1.62,0,1.52,6.64-.69,8.79-7.46,8.72-13.36C96.24,42.7,93.38,38.84,88.48,42.61Z"/><path class="cls-3" d="M36.95,42.61c.77.59,0,1.91-.77,1.31-4.68-3.59-5.63,1.56-5.54,5.38.1,4.53,2.12,9.9,7.19,10.43,1,.1,1,1.62,0,1.52-6.64-.69-8.79-7.46-8.72-13.36C29.18,42.7,32,38.84,36.95,42.61Z"/><polygon class="cls-1" points="61.75 122.51 59.95 127.18 59.95 141.51 70.95 141.51 70.95 127.18 69.05 122.51 61.75 122.51"/></g></g></svg>