<svg xmlns="http://www.w3.org/2000/svg" viewBox="0 0 128.55 139.68"><defs><style>.cls-1{fill:#54bbd3;}.cls-2{fill:#ea8642;}.cls-3{fill:#38332d;}</style></defs><title>Asset 44</title><g id="Layer_2" data-name="Layer 2"><g id="Layer_1-2" data-name="Layer 1"><path class="cls-1" d="M1.66,139.49H126.51s-2.06-13-19.59-19.68c0,0-21.42-7.5-24.31-11.92,0,0-5-8.81-5.2-12.1a172,172,0,0,1-27.54-.5s-2.64,11.93-8.16,16.34-.33.18-.33.18S.17,125.49,1.66,139.49Z"/><path class="cls-2" d="M38.14,49.34C39.9,43.39,39.83,28,47.6,26.09c3.23-.81,14.28,8.18,29.56,0,6.09-3.24,12.22,17.81,13.35,20.79l.5-2.71,2.84-2.12S105.75-.74,63.22,0,32.81,42.33,32.81,42.33,37.52,41.64,38.14,49.34Z"/><path class="cls-3" d="M121.43,127.22c-4.7-5.35-12.25-8.36-18.93-10.53-11.11-3.62-22.51-7.9-23.67-21.33-.28-3.31-.14-6.63-.14-9.95,5.31-3.68,8.5-10.24,10.25-16.73A76.84,76.84,0,0,0,91.12,43.4a15.54,15.54,0,0,1-1.6.59A78,78,0,0,1,87.6,67.2c-2.18,9-7.27,18.94-17.69,19.53-.2,0-.2,1.66,0,1.65a16.8,16.8,0,0,0,7.25-2c0,2.5-.1,5,0,7.51a.94.94,0,0,0-.23.05c-7.45,3.3-17.62,1.89-25.39.55a.86.86,0,0,0-.17,0c0-.19,0-.37,0-.56.18-2.91.06-5.84.07-8.75a17.93,17.93,0,0,0,6.22,2.47c1,.2,1.29-1.43.25-1.63-8.4-1.62-13.08-9.12-15.67-16.67S38.87,53.24,38.9,45.14c0-1.06-1.64-.86-1.64.19a75.94,75.94,0,0,0,3.83,25.33c1.82,5.18,4.73,10.16,9,13.43-.07,3.73.14,7.47-.19,11.2A20.69,20.69,0,0,1,45,107c-4.76,5.57-12.16,7.38-18.84,9.53s-14.25,5.16-19,10.49A39.48,39.48,0,0,0,0,139.48H1.59a51.38,51.38,0,0,1,2.56-5.6c3.63-6.49,10.68-11.33,17.54-14.14,6.56-2.68,13.69-3.92,19.67-7.89l.33-.22a22.12,22.12,0,0,0,4.68-3.79.92.92,0,0,0,.18.09,73.75,73.75,0,0,0,36,0l0,0a18.82,18.82,0,0,0,2.69,2.59c6.1,4.79,14.57,6.44,21.62,9.35,6.86,2.83,13.89,7.72,17.5,14.22a51.27,51.27,0,0,1,2.54,5.6h1.59A39.46,39.46,0,0,0,121.43,127.22Zm-73.72-21a20.45,20.45,0,0,0,3.54-9.87c8.21,1.41,18.22,2.71,26.16-.55a24.16,24.16,0,0,0,3.91,10.44A71.69,71.69,0,0,1,47.71,106.21Z"/><path class="cls-3" d="M84.55,44.26c-4.62-3.06-11-2.77-15.72,0a1.07,1.07,0,0,0,1.08,1.85c4.07-2.37,9.56-2.63,13.56,0C84.62,46.87,85.7,45,84.55,44.26Z"/><path class="cls-3" d="M83.32,50.83c-4.4-4.18-9.41-3.69-14.72-1.56-.84.34-.49,1.72.36,1.38A24,24,0,0,1,73,49.38a4.08,4.08,0,0,0,.13,1.74,3.07,3.07,0,0,0,1.41,1.6,2.2,2.2,0,0,0,2.68-.08,3.42,3.42,0,0,0,1-3.2,9.63,9.63,0,0,1,4.08,2.39C83,52.46,84,51.47,83.32,50.83Z"/><path class="cls-3" d="M43.39,51.73a9.62,9.62,0,0,1,4.09-2.36,3.43,3.43,0,0,0,.94,3.21,2.2,2.2,0,0,0,2.68.1,3.07,3.07,0,0,0,1.42-1.59,4.08,4.08,0,0,0,.15-1.74,24.2,24.2,0,0,1,4.06,1.31c.85.35,1.21-1,.37-1.38-5.29-2.17-10.3-2.71-14.73,1.44C41.7,51.36,42.71,52.36,43.39,51.73Z"/><path class="cls-3" d="M73.72,72.42a21.3,21.3,0,0,1-17.79-1c-.89-.45-1.7.88-.81,1.33a22.78,22.78,0,0,0,19,1.17C75,73.59,74.67,72.08,73.72,72.42Z"/><path class="cls-3" d="M90.67,43.63c-.79.6,0,2,.78,1.34,4.79-3.66,5.75,1.6,5.66,5.51-.11,4.64-2.18,10.13-7.37,10.66-1,.1-1,1.66,0,1.56,6.8-.7,9-7.62,8.94-13.65C98.61,43.74,95.69,39.79,90.67,43.63Z"/><path class="cls-3" d="M38,43.55c.78.6,0,2-.79,1.34-4.78-3.68-5.76,1.58-5.67,5.49.1,4.64,2.15,10.13,7.34,10.68,1,.11,1,1.66,0,1.56-6.79-.72-9-7.65-8.9-13.68C30,43.63,32.94,39.69,38,43.55Z"/><path class="cls-3" d="M66.83,65.7c-6.62-.8-4.69-5.79-3.91-10.53a12.51,12.51,0,0,0-1.66-9.27C57.44,40,47.87,40,42.47,43.25c-1.06.65-.09,2.32,1,1.67a13.66,13.66,0,0,1,14.1.07c4.93,2.91,3.7,8.82,2.82,13.4-1.07,5.56.69,8.55,6.47,9.24C68.06,67.79,68.05,65.85,66.83,65.7Z"/></g></g></svg>