<svg xmlns="http://www.w3.org/2000/svg" viewBox="0 0 118.28 126.34"><defs><style>.cls-1{fill:#ea8642;}.cls-2{fill:#54bbd3;}.cls-3{fill:#38332d;}</style></defs><title>Asset 41</title><g id="Layer_2" data-name="Layer 2"><g id="Layer_1-2" data-name="Layer 1"><path class="cls-1" d="M58.76,19.17c.1-4.94-.38-9.82-.32-14.76-1.36-4.3-5.33-6.56-16-1.57-20.81,9.71-25.8,37.84-24,58.37.15,1.72,1.49,15.3,4.34,15.3l24-.17-.93-4.11S40.45,68.6,37.36,57.8c-2.48.65-4.73-1.14-6.36-3.55a5.11,5.11,0,0,1-2.17-4.59l-.1-.35c-.66-2.44-1.07-5.73.3-8s3.92-1.06,5.76.34c.16.08.31.15.47.23,0-1.67,0-3.42.11-5.26a22.93,22.93,0,0,0,5.53-1.93C48,31.28,56.6,24.4,58.76,19.17Z"/><path class="cls-1" d="M76.11,2.84C65.42-2.15,60.79.21,59.43,4.5c.07,4.94.57,9.4.67,14.33,2.17,5.23,10.44,12.44,17.54,15.87a22.93,22.93,0,0,0,5.53,1.93c.08,1.67.12,3.26.12,4.78a5.21,5.21,0,0,1,2.61-.67,5.54,5.54,0,0,1,1.26-.14c2.71.05,3.5,2.26,3.14,4.64a.73.73,0,0,1-.21.42,11.38,11.38,0,0,1-.16,3.46c-.89,4.64-3.9,9.58-8.82,9C78,68.67,72.7,72.22,72.7,72.22l-.77,4.61,23.84-.33c2.85,0,4.19-13.58,4.34-15.3C101.91,40.68,96.91,12.55,76.11,2.84Z"/><path class="cls-2" d="M116.21,122.57a2.73,2.73,0,0,1-1.53.43c-3.29,0-3.61-4.62-.94-5.5-1.6-3.1-2.91-5.39-2.91-5.39a30.58,30.58,0,0,0-5.3-3.81,2.78,2.78,0,0,1-2.59,3.76c-3.36,0-3.62-4.81-.77-5.55a74,74,0,0,0-7.24-3,2.85,2.85,0,0,1-2.66,1.9H92a2.85,2.85,0,0,1-2.82-2.82,2.78,2.78,0,0,1,.15-.9c-2.86-.84-4.76-1.27-4.76-1.27-2.36,6.37-10.06,10.26-10.06,10.26a7.38,7.38,0,0,1-2.79.08A2.83,2.83,0,0,1,69.34,115c-3.27,0-3.6-4.56-1-5.48a22.27,22.27,0,0,1-6-5.33,2.59,2.59,0,0,1-2.63,2,2.56,2.56,0,0,1-2.39-1.39c-5.39,5.5-11.1,3.4-11.1,3.4-6.28-1-8.9-9.69-8.9-9.69-1.05.92-3.82,1.78-6.6,2.45a2.79,2.79,0,0,1,.34,1.34v.27a2.82,2.82,0,1,1-5.64,0v-.27c0-.08,0-.15,0-.22-1.11.2-1.83.32-1.83.32-15.3,4.93-23.38,23-23.38,23l-.13,1h117.7C117.34,125.12,116.79,123.84,116.21,122.57ZM10.45,124.33h-.38a2.82,2.82,0,0,1,0-5.65h.38a2.82,2.82,0,0,1,0,5.65Zm7.68-8.8c-3.64,0-3.64-5.65,0-5.65S21.77,115.53,18.13,115.53Zm7.2,8.8c-3.64,0-3.64-5.65,0-5.65S29,124.33,25.33,124.33ZM33.6,115c-3.64,0-3.64-5.64,0-5.64S37.24,115,33.6,115Zm8.8,8.8c-3.64,0-3.64-5.64,0-5.64S46,123.8,42.4,123.8Zm8-8c-3.64,0-3.64-5.64,0-5.64S54,115.8,50.4,115.8Zm9.87,7.73c-3.64,0-3.64-5.65,0-5.65S63.91,123.53,60.27,123.53Zm18.14.27c-3.64,0-3.64-5.64,0-5.64S82,123.8,78.41,123.8Zm10.53-11.23a2.85,2.85,0,0,1-4,0l-.27-.27a2.82,2.82,0,0,1,4-4l.27.27A2.85,2.85,0,0,1,88.94,112.57Zm8.14,10.69h-.27a2.82,2.82,0,1,1,0-5.64h.27a2.82,2.82,0,0,1,0,5.64Z"/><path class="cls-3" d="M1.45,126.34a35.84,35.84,0,0,1,3.22-7.79,29.67,29.67,0,0,1,14.85-13.16c5.9-2.42,12.33-3.51,17.83-6.86.25,5.92,3.75,10.89,10.06,11.42,5.83.49,11-3.5,12.75-8.84a11.53,11.53,0,0,0,10.52,9.73c7.06.8,11.79-4.41,15.36-9.73l0-.08c4.16,1.62,8.55,2.67,12.69,4.37a29.66,29.66,0,0,1,14.85,13.16,35.74,35.74,0,0,1,3.22,7.79h1.45a35.09,35.09,0,0,0-7.46-14.16c-4.38-5-10-7.74-16.18-9.75s-13.09-3.71-17.5-8.89a19.23,19.23,0,0,1-4.54-10.91c-.27-3.07-.14-6.16-.15-9.24C77.39,70,80.35,63.87,82,57.83a73,73,0,0,0,1.51-28.37c-.13-1-1.61-.56-1.48.41a73,73,0,0,1-1.26,26.59c-2,8.39-6.73,18-16.42,18.58-1,.06-1,1.59,0,1.54a16,16,0,0,0,6.74-2.31c0,2.36-.09,4.71.06,7.06A22.17,22.17,0,0,0,76,94.26c-4.28,3-9.71,3.85-14.88,3.84a.91.91,0,0,0-.53,0l-1,0c-5.57-.18-11.84-1.48-16.34-5a22.58,22.58,0,0,0,4-11.78c.17-2.71,0-5.43.05-8.14a19.5,19.5,0,0,0,6.19,2.69c1,.19,1.2-1.33.23-1.52-7.81-1.5-12.57-8.86-15-15.87A69.11,69.11,0,0,1,35.4,36c0-1-1.52-.8-1.52.18a70.58,70.58,0,0,0,3.6,23.55c1.7,4.82,4.41,9.44,8.36,12.48-.06,3.47.14,6.95-.16,10.41a19.25,19.25,0,0,1-4.54,10.91c-4.42,5.18-11.3,6.88-17.5,8.89s-11.8,4.78-16.18,9.75A35,35,0,0,0,0,126.34ZM76.94,95.53l.09-.08a19.76,19.76,0,0,0,3.73,3,30.11,30.11,0,0,0,3.81,2c-3,4.42-6.43,8.53-12.13,8.87a10,10,0,0,1-10.83-9.55C67,99.71,72.62,98.63,76.94,95.53ZM42.23,94.37C46.94,98,53.09,99.3,58.9,99.65a11.16,11.16,0,0,1-10.84,8.73c-6.12,0-9.25-5.3-9.13-10.88,0,0,0,0,0,0A19.57,19.57,0,0,0,42.23,94.37Z"/><path class="cls-1" d="M76.23,53.6C81,56.65,71.4,62,68.48,58.48S73.54,51.88,76.23,53.6Z"/><path class="cls-1" d="M41.78,54.42c-4.93,3.16,5,8.66,8,5.06S44.56,52.64,41.78,54.42Z"/><path class="cls-3" d="M53.63,47.09c-1.5-5.6-9.72-7.72-14.15-4.3-.73.56,0,1.79.75,1.22A7.49,7.49,0,0,1,45,42.59c-.84,1.38-.64,3.46,1,4.19,1.76.81,3.24-.82,3.26-2.51a2.21,2.21,0,0,0-.08-.6,6.27,6.27,0,0,1,3.17,3.83C52.49,48.39,53.87,48,53.63,47.09Z"/><path class="cls-3" d="M61,57.9c-1.64.06-3.72.06-3.88-2a19.89,19.89,0,0,1,.67-4.61,17.57,17.57,0,0,0-.63-8.35c-2.35-7.34-12.09-8.36-17.81-4.39-.75.52,0,1.77.72,1.24,3.32-2.3,8.67-3.1,12.18-.89,5.13,3.23,4.11,10.34,3.38,15.43-.55,3.82,1.75,5.3,5.37,5.17C62,59.46,62,57.86,61,57.9Z"/><path class="cls-3" d="M64,47.15c1-5.71,9-8.51,13.74-5.47.77.5.13,1.79-.64,1.28a7.49,7.49,0,0,0-4.83-1c1,1.3.93,3.39-.59,4.25-1.69,1-3.3-.54-3.46-2.23a2.26,2.26,0,0,1,0-.6,6.26,6.26,0,0,0-2.84,4.08C65.25,48.36,63.85,48.06,64,47.15Z"/><path class="cls-3" d="M62.37,40.24c3.86-5.1,11-5.16,16.05-1.69.76.52,0,1.77-.72,1.24C73.42,36.82,67,36.47,63.61,41,63.06,41.7,61.81,41,62.37,40.24Z"/><path class="cls-3" d="M64.89,63.25A12.7,12.7,0,0,1,54.28,63c-.9-.48-1.83.83-.92,1.31a14.41,14.41,0,0,0,12.22.4C66.54,64.31,65.84,62.87,64.89,63.25Z"/><path class="cls-3" d="M83.52,40.44c-.8.55-.11,1.91.7,1.35,4.86-3.33,5.53,1.86,5.24,5.67-.35,4.52-2.65,9.77-7.74,10-1,0-1.06,1.57-.08,1.52,6.67-.33,9.18-7,9.42-12.87C91.26,40.95,88.62,36.94,83.52,40.44Z"/><path class="cls-3" d="M34.81,40.37c.81.52.17,1.9-.66,1.37-5-3.19-5.48,2-5.08,5.81.47,4.51,2.92,9.7,8,9.81,1,0,1.1,1.54.13,1.51-6.68-.15-9.37-6.72-9.78-12.6C27.08,41.09,29.61,37,34.81,40.37Z"/></g></g></svg>