<svg xmlns="http://www.w3.org/2000/svg" viewBox="0 0 125.65 133.27"><defs><style>.cls-1{fill:#38332d;}.cls-2{fill:#54bbd3;}</style></defs><title>Asset 42</title><g id="Layer_2" data-name="Layer 2"><g id="Layer_1-2" data-name="Layer 1"><path class="cls-1" d="M39,58.27l-5-1.33s2.67,17.79,16.84,22.9C50.84,79.83,40.34,71.27,39,58.27Z"/><path class="cls-1" d="M87.41,58.13l4.94-1.54S90.43,74.48,76.5,80.18C76.5,80.18,86.63,71.18,87.41,58.13Z"/><path class="cls-2" d="M86,107.29,63.93,130.64,37.71,107.43l-22.52,8.37C4,120.41,1.36,133.27,1.36,133.27H124.1c-2.93-12-16.32-19.2-29.57-23A67.79,67.79,0,0,1,86,107.29Z"/><path class="cls-1" d="M118.67,121.49c-4.6-5.22-12-8-18.52-10.07s-13.76-3.78-18.4-9.23A20.14,20.14,0,0,1,77,90.74c-.28-3.23-.14-6.46-.16-9.7,5.19-3.61,8.29-10,10-16.36A75,75,0,0,0,88.92,40a15.56,15.56,0,0,1-1.56.58,76.24,76.24,0,0,1-1.84,22.69c-2.12,8.82-7.07,18.53-17.26,19.12-1,.06-1,1.67,0,1.61a16.45,16.45,0,0,0,7.09-2c0,2.48-.09,5,.06,7.43a25.59,25.59,0,0,0,2,8.58,166.47,166.47,0,0,1-14.19,9.61c-5.53-2.72-9.54-5.89-15-8.68,1.71-3.1,1.82-5.79,2.05-9.51.17-2.85,0-5.7.06-8.56a17.57,17.57,0,0,0,6.09,2.41c1,.2,1.26-1.4.24-1.59-8.21-1.57-12.8-8.89-15.34-16.27s-3.44-15.7-3.42-23.62c0-1-1.6-.84-1.6.19a74.24,74.24,0,0,0,3.78,24.75c1.79,5.06,4.64,9.92,8.79,13.11-.07,3.65.15,7.3-.17,10.94a20.22,20.22,0,0,1-4.77,11.47c-2.75,3.22-6.39,5.16-10.27,6.65-2.68,1-5.46,1.84-8.13,2.7C19,113.7,11.58,116.27,7,121.49c-3.09,3.51-5.44,8.78-7,11.78H1.56c.69,0,1.52-3.34,2.5-5.09,3.54-6.35,10.42-10.9,17.12-13.66,6.26-2.57,13.1-3.63,18.92-7.23.14-.09.27-.11.41-.2s11.21,9.39,12.58,10.56c2,1.74,2.63,1.62,4.16-.61,1.67-2.42,5-4.84,6.44-7.43l.3.16c0,.09,5.81,7.43,6.85,8.16,1.59,1.13,2.81-.34,3.93-1.51.79-.82,9.27-10.07,9.7-9.76s.71.49,1.08.72c5.82,3.6,12.66,4.74,18.92,7.32,6.71,2.76,13.58,7.14,17.12,13.48,1,1.74,1.81,5.09,2.5,5.09h1.56C124.11,130.27,121.77,125,118.67,121.49ZM55.1,117.36c-5-4.13-6.72-6.12-13.28-11.12a28.56,28.56,0,0,0,5.55-5.93c5.44,2.77,9.41,5.92,14.89,8.61C60.65,111.86,57,114.6,55.1,117.36Zm17-.72c-1.91-2.21-4.8-4.86-6.64-7.4a.86.86,0,0,0-.23-.22.67.67,0,0,0-.35-.57c4.36-2.66,9.11-6,13.22-9a20.65,20.65,0,0,0,5.06,6.25C79.38,109.21,75.94,113.11,72.14,116.64Z"/><path class="cls-1" d="M82.5,42.73c-4.52-3-10.78-2.69-15.36,0a1,1,0,0,0,1.06,1.81c4-2.33,9.34-2.58,13.25,0C82.58,45.29,83.62,43.47,82.5,42.73Z"/><path class="cls-1" d="M66.27,60.52c-2.12.13-5,.33-5.87-2.13-.48-1.44-.16-4.63-.06-6.11.27-4.12-.56-10.27-5.27-11.35A21.41,21.41,0,0,0,42,42.86a1,1,0,0,0,1.06,1.81c3-1.74,7.95-2.25,11.29-1.47C59,44.29,59,49,58.85,52.88c0,1.14-.1,3.71,0,4.84.36,3.93,4.16,4.39,7.41,4.19C67.17,61.86,67.17,60.46,66.27,60.52Z"/><path class="cls-1" d="M80.92,46.37c-5.52-2.15-9.88.14-13.9,4-.64.62.19,1.74.84,1.12a23.5,23.5,0,0,1,3.21-2.66,4,4,0,0,0,.76,1.52,3,3,0,0,0,1.87.93,2.15,2.15,0,0,0,2.4-1.07A3.35,3.35,0,0,0,75.79,47a9.42,9.42,0,0,1,4.57.65C81.2,48,81.76,46.7,80.92,46.37Z"/><path class="cls-1" d="M43.09,48.35a9.41,9.41,0,0,1,4.47-1.14,3.35,3.35,0,0,0,0,3.26,2.15,2.15,0,0,0,2.5.8,3,3,0,0,0,1.76-1.12,4,4,0,0,0,.59-1.6,23.56,23.56,0,0,1,3.48,2.29c.71.55,1.41-.66.71-1.2-4.41-3.43-9-5.25-14.25-2.51C41.6,47.55,42.29,48.76,43.09,48.35Z"/><path class="cls-1" d="M88.48,40.22c-.77.59,0,1.91.77,1.31,4.68-3.59,5.63,1.56,5.54,5.38-.1,4.53-2.12,9.9-7.19,10.43-1,.1-1,1.62,0,1.52,6.64-.69,8.79-7.46,8.72-13.36C96.24,40.31,93.38,36.45,88.48,40.22Z"/><path class="cls-1" d="M36.95,40.22c.77.59,0,1.91-.77,1.31-4.67-3.59-5.62,1.56-5.54,5.38.1,4.53,2.12,9.9,7.19,10.43,1,.1,1,1.62,0,1.52-6.64-.69-8.79-7.46-8.72-13.36C29.18,40.31,32,36.45,36.95,40.22Z"/><path class="cls-1" d="M68.76,68.28c-2.82,2.58-7.66,2.75-10.41,0a.85.85,0,0,0-1.2,1.2c3.42,3.42,9.32,3.2,12.82,0C70.77,68.74,69.56,67.54,68.76,68.28Z"/><path class="cls-1" d="M62.84,0A45.45,45.45,0,0,0,48.22,2.53C40.3,5.46,35.4,10.76,32.68,18.8c-.68,2-1.4,20.66-.68,20.47,0,0,5.33-1.66,5.33,8.33L41,30.6s1.46-11,18.12-4.33a12.51,12.51,0,0,0,2.83.51v.08c1,0,.34,0,.5,0s.5,0,.5,0v-.08a24,24,0,0,0,3.23-.51C82.85,19.6,84.61,30.6,84.61,30.6l3.71,17c0-10,5.36-8.33,5.36-8.33,1.4-15.91-1.6-32.71-18.48-37.75A41.83,41.83,0,0,0,62.84,0Z"/></g></g></svg>