<svg xmlns="http://www.w3.org/2000/svg" viewBox="0 0 117.52 125.64"><defs><style>.cls-1{fill:#54bbd3;}.cls-2{fill:#38332d;}.cls-3{fill:#ea8642;}</style></defs><title>Asset 38</title><g id="Layer_2" data-name="Layer 2"><g id="Layer_1-2" data-name="Layer 1"><path class="cls-1" d="M94.44,40c-7-7-1.83-40.67-35.5-40-23,.46-31.5,12.5-41,39C9.29,63.13,36.29,67.07,41,67.56a10.38,10.38,0,0,1-1-2.3c-1.09-3.41-2.48-7.14-3.54-10.85a5.07,5.07,0,0,1-.73-.09,1,1,0,0,1-.47,0c-2.5-.46-4.41-3.64-5.31-6.43-1.28-2.08-1.81-4.15.13-5.43a2.32,2.32,0,0,1,.43-.22A3.19,3.19,0,0,1,32,41.56a2.51,2.51,0,0,1,.44-.29,2,2,0,0,1,2.33.46A17.53,17.53,0,0,1,38.2,31.54c4.22-5.33,11.38-8.78,18.06-10,15.51-2.86,27.68,4.48,27.18,20,0,.4,0,.8,0,1.2A4.48,4.48,0,0,1,84,42.6l0,0a2.3,2.3,0,0,1,1.29-.15,2.67,2.67,0,0,1,1.6.93,3.48,3.48,0,0,1,1.36,2.08,5.17,5.17,0,0,1,.23,1A5.63,5.63,0,0,1,87.8,50c-.92,3.21-2.85,6.38-6.28,6.41-.39,1.48-.84,3-1.39,4.43a57.86,57.86,0,0,1-3.46,7.66l.76,0C97.44,68.51,101.44,47,94.44,40Z"/><path class="cls-2" d="M85.69,101.5c4.16,1.62,8.55,2.67,12.69,4.37A29.66,29.66,0,0,1,113.23,119a35.93,35.93,0,0,1,2.81,6.49h1.47a34.86,34.86,0,0,0-7.07-12.85c-4.38-5-10-7.74-16.18-9.75S81.18,99.2,76.77,94A19.23,19.23,0,0,1,72.22,83.1c-.27-3.07-.14-6.16-.15-9.24C77,70.43,80,64.33,81.58,58.29a73,73,0,0,0,1.51-28.37c-.13-1-1.61-.56-1.48.41a73,73,0,0,1-1.26,26.59c-2,8.39-6.73,18-16.42,18.58-1,.06-1,1.59,0,1.54a16,16,0,0,0,6.74-2.31c0,2.36-.09,4.71.06,7.07a22.18,22.18,0,0,0,4.85,12.93S80.7,100,85.69,101.5ZM42.82,93.58a22.57,22.57,0,0,0,4-11.78c.17-2.71,0-5.43.06-8.14A19.49,19.49,0,0,0,53,76.35c1,.19,1.2-1.33.23-1.52C45.46,73.33,40.69,66,38.28,59A69.12,69.12,0,0,1,35,36.49c0-1-1.52-.8-1.52.18a70.62,70.62,0,0,0,3.6,23.55c1.7,4.81,4.41,9.44,8.36,12.48-.06,3.47.14,6.95-.16,10.41A19.23,19.23,0,0,1,40.75,94c-4.41,5.18-11.3,6.88-17.5,8.89s-11.8,4.78-16.18,9.75A34.85,34.85,0,0,0,0,125.51H1.47A36,36,0,0,1,4.29,119a29.66,29.66,0,0,1,14.85-13.16C25,103.44,31.46,102.35,37,99A16.41,16.41,0,0,0,42.82,93.58Z"/><path class="cls-3" d="M76.37,51c4.76,3.05-4.83,8.36-7.74,4.89S73.68,49.28,76.37,51Z"/><path class="cls-3" d="M41.92,51.83c-4.93,3.16,5,8.66,8,5.06S44.7,50,41.92,51.83Z"/><path class="cls-2" d="M53.26,47.28C50.49,42.18,42,42,38.5,46.41c-.57.71.43,1.74,1,1a7.49,7.49,0,0,1,4.26-2.49c-.49,1.54.19,3.51,1.91,3.85,1.9.37,3-1.55,2.58-3.21A2.24,2.24,0,0,0,48,45a6.27,6.27,0,0,1,4,3C52.47,48.81,53.7,48.09,53.26,47.28Z"/><path class="cls-2" d="M60.13,59.33c-1.64.06-3.72.06-3.87-2a19.75,19.75,0,0,1,.67-4.61,17.62,17.62,0,0,0-.63-8.35C54,37,44.21,36,38.49,40c-.75.52,0,1.77.72,1.24,3.32-2.3,8.68-3.1,12.18-.89,5.13,3.23,4.11,10.34,3.38,15.43-.55,3.82,1.75,5.3,5.37,5.17C61.16,60.9,61.16,59.3,60.13,59.33Z"/><path class="cls-2" d="M62.39,47.28c2.77-5.09,11.26-5.23,14.76-.86.57.71-.44,1.74-1,1a7.49,7.49,0,0,0-4.26-2.49c.49,1.54-.19,3.51-1.91,3.85-1.9.37-3-1.55-2.58-3.21a2.2,2.2,0,0,1,.21-.56,6.26,6.26,0,0,0-4,3C63.19,48.81,61.95,48.09,62.39,47.28Z"/><path class="cls-2" d="M61.51,41.68c3.86-5.1,11-5.16,16.05-1.69.75.52,0,1.77-.73,1.24-4.28-3-10.69-3.32-14.09,1.18C62.2,43.13,61,42.42,61.51,41.68Z"/><path class="cls-2" d="M64,64.69a12.69,12.69,0,0,1-10.61-.27c-.9-.48-1.83.83-.92,1.31a14.41,14.41,0,0,0,12.22.4C65.68,65.75,65,64.3,64,64.69Z"/><path class="cls-2" d="M87.78,42.17c-1.49-2-3.85-.74-5.19.62-.59.6.23,1.63.83,1,2.33-2.36,4-.73,4.33,1.81a10,10,0,0,1-.77,4.3c-.84,2.55-2.61,6-5.76,5.75A.66.66,0,0,0,81.07,57c4.46.4,6.81-4.7,7.64-8.34C89.24,46.36,89.22,44.13,87.78,42.17Z"/><path class="cls-2" d="M29.75,41.17c1.49-2,3.85-.74,5.19.62.59.6-.23,1.63-.83,1-2.33-2.36-4-.73-4.33,1.81a10,10,0,0,0,.77,4.3c.84,2.55,2.61,6,5.76,5.75A.66.66,0,0,1,36.46,56c-4.46.4-6.81-4.7-7.64-8.34C28.29,45.36,28.32,43.13,29.75,41.17Z"/><path class="cls-2" d="M45.61,86.64s15.71,3.63,26.58,0c0,0,.9,8.5,12.64,14s15.74,2.25,27.11,15.38c0,0,3.88,5.63,4.88,9.63H.81s2.5-10.37,11-16.5S29.3,101.78,35.44,99C41.81,96.14,45.52,88.64,45.61,86.64Z"/><path class="cls-1" d="M44.71,89.39a46.13,46.13,0,0,0,28.29,0,18.49,18.49,0,0,0,1.13,2.22,42.62,42.62,0,0,1-30.65,0Z"/><path class="cls-1" d="M31.94,38.68s27.5-2.17,40-15.67l12,18.5s8.25-38-25.5-37.5C27.43,4.47,31.94,38.68,31.94,38.68Z"/></g></g></svg>