<svg xmlns="http://www.w3.org/2000/svg" viewBox="0 0 125.65 136.43"><defs><style>.cls-1{fill:#ea8642;}.cls-2{fill:#38332d;}.cls-3{fill:#54bbd3;}</style></defs><title>Asset 39</title><g id="Layer_2" data-name="Layer 2"><g id="Layer_1-2" data-name="Layer 1"><path class="cls-1" d="M.5,136.43s6.16-13.29,17.73-17.72l9.86-3.87s13.6-5.23,16.14-7.9c0,0,25.27,3.64,36.78-1.7,0,0,10.38,7.09,13.69,8.22,0,0,16,4.35,21.26,10.23,0,0,9,6.75,8.64,12.75Z"/><path class="cls-2" d="M37.64,48.27c1.71-5.82,1.62-20.83,9.21-22.74,3.16-.8,14,8,28.89,0,5.95-3.17,12,17.39,13.08,20.3l.48-2.66,2.78-2.08S103.64-.79,62.08,0,32.42,41.43,32.42,41.43,37,40.74,37.64,48.27Z"/><path class="cls-2" d="M4.05,131c3.38-6.06,9.8-10.65,16.2-13.46,2.64,6,2.92,12.49,2.37,18.93h1.68c.55-6.67.21-13.28-2.5-19.58,6.23-2.46,12.93-3.73,18.58-7.49l.33-.22a23.48,23.48,0,0,0,3-2.21.71.71,0,0,0,.47.29c12.51,2.21,25.23,3,37.57-.57l0,0A18,18,0,0,0,83.33,108c6,4.67,14.25,6.27,21.15,9.11l.85.37c-4.36,4.82-5.39,12.14-5.3,19h1.68c-.11-6.65.86-13.77,5.24-18.24,5.87,2.84,11.55,7.2,14.65,12.76a50.31,50.31,0,0,1,2.5,5.47h1.56a38.56,38.56,0,0,0-7-12.17c-4.6-5.22-12-8.15-18.52-10.27-10.86-3.52-22-7.69-23.17-20.81-.28-3.23-.14-6.48-.16-9.72,5.19-3.61,8.29-10,10-16.37a75.09,75.09,0,0,0,2.1-24.71,15.85,15.85,0,0,1-1.56.58,76.2,76.2,0,0,1-1.84,22.69c-2.12,8.82-7.07,18.53-17.26,19.12-.19,0-.2,1.62,0,1.61a16.43,16.43,0,0,0,7.09-2c0,2.48-.09,5,.06,7.43a23.49,23.49,0,0,0,5.11,13.43c-11.66,3.23-23.62,2.48-35.44.42,3.77-4,4.85-8.63,5.17-13.86.17-2.85,0-5.71.06-8.56a17.53,17.53,0,0,0,6.09,2.4c1,.2,1.26-1.4.24-1.59-8.21-1.57-12.8-8.89-15.34-16.27s-3.44-15.7-3.42-23.62c0-1-1.6-.84-1.6.19a74.2,74.2,0,0,0,3.78,24.75c1.79,5.06,4.64,9.92,8.79,13.11-.07,3.65.15,7.3-.17,10.94a20.22,20.22,0,0,1-4.77,11.47C39.26,110.08,32,111.87,25.5,114S11.58,119,7,124.27a38.59,38.59,0,0,0-7,12.17H1.56A50.14,50.14,0,0,1,4.05,131Z"/><path class="cls-2" d="M83,45.12c-4.52-3-10.78-2.69-15.36,0a1,1,0,0,0,1.06,1.81c4-2.33,9.34-2.58,13.25,0C83.07,47.68,84.12,45.86,83,45.12Z"/><path class="cls-2" d="M81.27,50.35c-4.91-3.33-9.66-2-14.44.85-.76.46-.2,1.74.57,1.27a23.42,23.42,0,0,1,3.72-1.88,4,4,0,0,0,.41,1.65,3,3,0,0,0,1.62,1.32,2.15,2.15,0,0,0,2.57-.51,3.35,3.35,0,0,0,.42-3.24,9.4,9.4,0,0,1,4.31,1.65C81.19,52,82,50.86,81.27,50.35Z"/><path class="cls-2" d="M43.08,51.11a9.41,9.41,0,0,1,4.4-1.4A3.35,3.35,0,0,0,47.71,53a2.15,2.15,0,0,0,2.54.65,3,3,0,0,0,1.69-1.22,4,4,0,0,0,.5-1.63A23.57,23.57,0,0,1,56,52.86c.74.51,1.37-.74.64-1.24-4.61-3.17-9.28-4.72-14.37-1.68C41.54,50.4,42.31,51.57,43.08,51.11Z"/><path class="cls-2" d="M72.45,70.77a20.82,20.82,0,0,1-17.39-.94c-.87-.44-1.66.86-.79,1.3a22.27,22.27,0,0,0,18.56,1.11C73.75,71.91,73.37,70.44,72.45,70.77Z"/><path class="cls-2" d="M89,42.61c-.77.59,0,1.91.77,1.31,4.67-3.59,5.63,1.56,5.54,5.38-.1,4.53-2.12,9.9-7.19,10.43-1,.1-1,1.62,0,1.52,6.64-.69,8.79-7.46,8.72-13.35C96.74,42.7,93.88,38.84,89,42.61Z"/><path class="cls-2" d="M37.45,42.61c.77.59,0,1.91-.77,1.31-4.67-3.59-5.62,1.56-5.54,5.38.1,4.53,2.12,9.9,7.19,10.43,1,.1,1,1.62,0,1.52-6.64-.69-8.79-7.46-8.72-13.35C29.68,42.7,32.54,38.84,37.45,42.61Z"/><path class="cls-2" d="M89.7,41.58l-4.13-5.65c.51,8,.58,16.82-1.47,24.64C83.47,62.91,82,67.22,79.53,67c-2.59-.2-9.89-3.54-15.9-3.68-5.81-.13-11.21,2.41-16.91,3.05-4,.45-4.58-1.66-5.13-5.18A130.34,130.34,0,0,1,39.86,40.7c0-1-.61-3.84.07-4.77l-4.13,5.65c.57,19.26,5.11,30.68,5.11,30.68a51.58,51.58,0,0,0,1.89,5.84c2,5,6.09,10.28,11.12,12.52C66,96,77.57,94,84.59,78,89.64,66.45,89.34,53.71,89.7,41.58ZM73.53,74.45a11.66,11.66,0,0,1-9.62,3.68,14.57,14.57,0,0,1-2.75-.41,16.63,16.63,0,0,1-5.58-2.35c-.79-.56-4.52-4-3.64-5.25,0,0,1.5-2.13,11.76-1.92s11.76,2.43,11.78,2.46C75.93,71.31,73.9,74,73.53,74.45Z"/><path class="cls-2" d="M66.77,62.9c-2.12.13-5,.33-5.87-2.13-.48-1.44-.16-4.63-.06-6.11.27-4.12-.56-10.27-5.27-11.35a21.43,21.43,0,0,0-13.05,1.93,1,1,0,0,0,1.06,1.81,17.42,17.42,0,0,1,11.29-1.47c4.62,1.08,4.64,5.85,4.49,9.68,0,1.14-.1,3.71,0,4.84.36,3.93,4.16,4.39,7.41,4.19C67.66,64.25,67.67,62.85,66.77,62.9Z"/><path class="cls-3" d="M78.64,44.37a8.82,8.82,0,0,0-11.49,5.49,9.07,9.07,0,0,0-.37,1.51,7.76,7.76,0,0,0-3.7-.55c-1.21.08-2.49.62-3.71.64a8.6,8.6,0,0,0-6-7.08,8.82,8.82,0,0,0-11.49,5.49c-3.53,10.37,13.26,15.43,17,5.21a8.18,8.18,0,0,0,.46-1.94A16,16,0,0,0,62,52.68a6.56,6.56,0,0,1,4.71.57c.65,8,14.15,10.86,17.49,1.84C85.92,50.4,83.12,45.87,78.64,44.37Zm-21.18,9.8a6.44,6.44,0,0,1-3.79,4.42c-5.33,2.31-11.61-2-10.35-7.82.91-4.23,5.07-5.83,9-5A6.63,6.63,0,0,1,57.45,54.18Zm25.29,0A6.44,6.44,0,0,1,79,58.59c-5.33,2.31-11.61-2-10.35-7.82.91-4.23,5.07-5.83,9-5A6.63,6.63,0,0,1,82.75,54.18Z"/></g></g></svg>