<svg xmlns="http://www.w3.org/2000/svg" viewBox="0 0 118.28 131.66"><defs><style>.cls-1{fill:#ea8642;}.cls-2{fill:#38332d;}</style></defs><title>Asset 37</title><g id="Layer_2" data-name="Layer 2"><g id="Layer_1-2" data-name="Layer 1"><path class="cls-1" d="M26.92,107.55s14.69-5.42,16.77-10.9H74.85s4.11,6.7,17.1,11c0,0,21.06,4,24.88,24H1.32s1.87-21.21,25.6-24.1"/><path class="cls-2" d="M25.85,65.4A97.47,97.47,0,0,1,24.91,77H47a14.62,14.62,0,0,1-4.8-5.3,22.28,22.28,0,0,1-3.66-8.14C36.28,55.07,35,52.42,35.44,38.21c.35-1.74.45-3.67,2-3.85C48.5,33.07,84,44.15,84,45.58c-.17,9.32-3.42,19.07-6.8,26A22.9,22.9,0,0,1,72.68,77H94.18a114.58,114.58,0,0,1-1.08-25.11c1.64-15.1,3.23-30.36-8.29-42C68.25-6.93,31.25-2,26.49,22.47,23.59,37.34,26.26,50.47,25.85,65.4Z"/><path class="cls-2" d="M51.44,80.15l.21-1.48c-6.63-2.27-10.79-8.93-13-15.32A69.17,69.17,0,0,1,35.4,40.87c0-1-1.52-.8-1.53.18a70.64,70.64,0,0,0,3.6,23.55c1.7,4.81,4.41,9.44,8.36,12.48-.06,3.47.14,6.95-.16,10.41A19.25,19.25,0,0,1,41.13,98.4c-4.41,5.18-11.29,6.88-17.5,8.89S11.83,112.07,7.45,117A35.06,35.06,0,0,0,0,131.2H1.45a35.63,35.63,0,0,1,3.22-7.79,29.64,29.64,0,0,1,14.85-13.16A96.55,96.55,0,0,1,32,105.94c12.73-3.29,14.82-14.38,15.15-19.75.17-2.71,0-5.43.06-8.14A23.12,23.12,0,0,0,51.44,80.15Z"/><path class="cls-2" d="M110.83,117c-4.37-5-10-7.74-16.17-9.75s-13.09-3.71-17.5-8.89a19.23,19.23,0,0,1-4.54-10.91c-.27-3.07-.14-6.16-.15-9.24,4.93-3.43,7.89-9.53,9.51-15.57a73.06,73.06,0,0,0,1.51-28.37c-.13-1-1.61-.56-1.48.41a73,73,0,0,1-1.26,26.59C79,68.47,75.31,76.54,68.24,79.1c0,.44.09.89.14,1.33a26.35,26.35,0,0,0,2.67-1.31c0,2.36-.09,4.71.06,7.07.7,11.33,6.08,17.31,16.53,20.43a116.71,116.71,0,0,1,11.13,3.63,29.64,29.64,0,0,1,14.85,13.16,35.63,35.63,0,0,1,3.22,7.79h1.45A35,35,0,0,0,110.83,117Z"/><path class="cls-1" d="M76.77,53.45c4.76,3.05-4.83,8.36-7.74,4.89S74.09,51.73,76.77,53.45Z"/><path class="cls-1" d="M42.33,54.27c-4.93,3.16,5,8.66,8,5.06S45.11,52.49,42.33,54.27Z"/><path class="cls-2" d="M53.12,51.55c-1.4-5.63-9.58-7.89-14.07-4.55-.74.55,0,1.79.73,1.24a7.49,7.49,0,0,1,4.75-1.34c-.87,1.36-.7,3.44.87,4.2,1.75.84,3.26-.76,3.3-2.45a2.21,2.21,0,0,0-.07-.6,6.26,6.26,0,0,1,3.1,3.88C52,52.84,53.35,52.45,53.12,51.55Z"/><path class="cls-2" d="M60.54,62.75c-1.64.06-3.72.06-3.88-2a19.84,19.84,0,0,1,.67-4.61,17.62,17.62,0,0,0-.63-8.35c-2.35-7.34-12.09-8.36-17.81-4.39-.76.52,0,1.77.72,1.24,3.32-2.3,8.68-3.1,12.18-.89C56.92,47,55.9,54.09,55.17,59.18c-.55,3.82,1.75,5.3,5.37,5.17C61.56,64.32,61.57,62.72,60.54,62.75Z"/><path class="cls-2" d="M63.4,51.69c1.29-5.65,9.42-8.09,14-4.84.74.53.05,1.79-.7,1.25a7.5,7.5,0,0,0-4.78-1.24c.89,1.35.78,3.43-.79,4.22-1.73.87-3.27-.69-3.35-2.39a2.4,2.4,0,0,1,.05-.6,6.26,6.26,0,0,0-3,3.95C64.59,53,63.2,52.6,63.4,51.69Z"/><path class="cls-2" d="M61.91,45.1C65.77,40,73,39.93,78,43.4c.75.52,0,1.77-.73,1.24-4.28-3-10.69-3.32-14.09,1.18C62.6,46.55,61.36,45.84,61.91,45.1Z"/><path class="cls-2" d="M66.2,68c-4.75,2.58-9.58,2.64-14.12-.44-.78-.53-1.64.66-.86,1.19,4.94,3.35,10.38,3.41,15.59.58C67.64,68.86,67,67.53,66.2,68Z"/><polygon class="cls-2" points="46.77 87.99 44.65 94.66 73.32 94.66 72.66 87.99 46.77 87.99"/></g></g></svg>