<svg xmlns="http://www.w3.org/2000/svg" xmlns:xlink="http://www.w3.org/1999/xlink" viewBox="0 0 147.4 81.55"><defs><style>.cls-1{fill:url(#linear-gradient);}.cls-2{fill:#2b2b2b;}</style><linearGradient id="linear-gradient" x1="115.67" y1="106.86" x2="31.73" y2="22.91" gradientUnits="userSpaceOnUse"><stop offset="0" stop-color="#2ac6ff"/><stop offset="1" stop-color="#fffaa7"/></linearGradient></defs><title>Asset 29</title><g id="Layer_2" data-name="Layer 2"><g id="Layer_1-2" data-name="Layer 1"><path class="cls-1" d="M0,75.13c6.12,0,7,6.42,14.74,6.42s8.62-6.42,14.74-6.42,7,6.42,14.74,6.42S52.84,75.13,59,75.13s7,6.42,14.74,6.42,8.62-6.42,14.74-6.42,7,6.42,14.74,6.42,8.62-6.42,14.74-6.42,7,6.42,14.74,6.42,8.62-6.42,14.74-6.42V54.64c-6.12,0-7,6.42-14.74,6.42s-8.62-6.42-14.74-6.42-7,6.42-14.74,6.42-8.62-6.42-14.74-6.42-7,6.42-14.74,6.42S65.08,54.64,59,54.64s-7,6.42-14.74,6.42-8.62-6.42-14.74-6.42-7,6.42-14.74,6.42S6.12,54.64,0,54.64Z"/><path class="cls-2" d="M48.68,13.18a6.61,6.61,0,1,1,.67,0C49.13,13.17,48.9,13.18,48.68,13.18ZM48.7,3l-.36,0a3.59,3.59,0,0,0-1.91,6.36,3.59,3.59,0,0,0,5.85-3.14h0A3.6,3.6,0,0,0,48.7,3Z"/><polygon class="cls-2" points="70.36 57.39 68.75 44.23 57.81 36.65 55.76 16.26 60.92 15.74 68.13 20.48 75.89 18.42 76.66 21.32 67.6 23.72 60.17 18.83 59.04 18.95 60.65 34.98 71.56 42.53 73.34 57.02 70.36 57.39"/><polygon class="cls-2" points="51.24 64.52 48.41 63.53 53.16 49.9 46.92 38.83 44.25 17.67 49.28 16.23 56.47 24.65 68.17 23.94 68.35 26.94 55.16 27.73 48.25 19.65 47.55 19.85 49.83 37.87 56.44 49.61 51.24 64.52"/><path class="cls-2" d="M36.61,73.07c-5,0-8.38-.18-8.74-.2l.16-3c.22,0,22.59,1.17,39.5-2.64l.66,2.93C57.43,72.59,44.83,73.07,36.61,73.07Z"/><path class="cls-2" d="M60.44,63.8H58.78l.05-3c.23,0,22.62.34,39.37-4.09l.77,2.9C84.3,63.48,66,63.8,60.44,63.8Z"/><rect class="cls-2" x="81.06" y="21.21" width="39.5" height="3"/><rect class="cls-2" x="75.1" y="21.21" width="11.93" height="3" transform="translate(14.32 74.02) rotate(-53.2)"/></g></g></svg>