<svg xmlns="http://www.w3.org/2000/svg" viewBox="0 0 33.13 37.17"><defs><style>.cls-1{fill:#1976d2;}.cls-2{fill:#fae001;}</style></defs><title>Asset 19</title><g id="Layer_2" data-name="Layer 2"><g id="Layer_1-2" data-name="Layer 1"><path class="cls-1" d="M0,11.06V26.11a3.53,3.53,0,0,0,1.77,3.06l13,7.53a3.53,3.53,0,0,0,3.53,0l13-7.53a3.53,3.53,0,0,0,1.77-3.06V11.06A3.53,3.53,0,0,0,31.37,8L18.33.47a3.53,3.53,0,0,0-3.53,0L1.77,8A3.53,3.53,0,0,0,0,11.06Z"/><path class="cls-2" d="M9.09,23.49l3.57,2.83V18.89s-.12-.63.86-.63h4.55v4l8-6.05L18.31,9.59v4.18H10.69s-1.6.12-1.6,1.35Z"/></g></g></svg>