<svg xmlns="http://www.w3.org/2000/svg" viewBox="0 0 53.6 20.88"><defs><style>.cls-1{fill:#fff;}</style></defs><title>Asset 23</title><g id="Layer_2" data-name="Layer 2"><g id="Layer_1-2" data-name="Layer 1"><path class="cls-1" d="M48,6.61a9.43,9.43,0,0,1-6.62-2.74c-1.26-1-2.26-1.87-4-1.87s-2.7.83-4,1.87A9.43,9.43,0,0,1,26.8,6.61a9.43,9.43,0,0,1-6.62-2.74c-1.26-1-2.26-1.87-4-1.87s-2.7.83-4,1.87A9.43,9.43,0,0,1,5.63,6.61,8.7,8.7,0,0,1,0,4.67L1.21,3.08A6.75,6.75,0,0,0,5.63,4.61c2.6,0,3.93-1.11,5.35-2.28S13.79,0,16.21,0s3.86,1.18,5.24,2.33S24.2,4.61,26.8,4.61s3.93-1.11,5.35-2.28S35,0,37.39,0s3.86,1.18,5.24,2.33S45.38,4.61,48,4.61a6.76,6.76,0,0,0,4.42-1.53L53.6,4.67A8.7,8.7,0,0,1,48,6.61Z"/><path class="cls-1" d="M48,13.74A9.43,9.43,0,0,1,41.35,11c-1.26-1-2.26-1.87-4-1.87s-2.7.83-4,1.87a9.37,9.37,0,0,1-13.25,0c-1.26-1-2.26-1.87-4-1.87s-2.7.83-4,1.87a9.43,9.43,0,0,1-6.62,2.74A8.7,8.7,0,0,1,0,11.8l1.21-1.59a6.75,6.75,0,0,0,4.42,1.53c2.6,0,3.93-1.11,5.35-2.28s2.81-2.33,5.24-2.33,3.86,1.18,5.24,2.33,2.75,2.28,5.35,2.28,3.93-1.11,5.35-2.28S35,7.13,37.39,7.13s3.86,1.18,5.24,2.33,2.75,2.28,5.35,2.28a6.76,6.76,0,0,0,4.42-1.53L53.6,11.8A8.7,8.7,0,0,1,48,13.74Z"/><path class="cls-1" d="M48,20.88a9.43,9.43,0,0,1-6.62-2.74c-1.26-1-2.26-1.87-4-1.87s-2.7.83-4,1.87a9.37,9.37,0,0,1-13.25,0c-1.26-1-2.26-1.87-4-1.87s-2.7.83-4,1.87a9.43,9.43,0,0,1-6.62,2.74A8.7,8.7,0,0,1,0,18.94l1.21-1.59a6.75,6.75,0,0,0,4.42,1.53c2.6,0,3.93-1.11,5.35-2.28s2.81-2.33,5.24-2.33,3.86,1.18,5.24,2.33,2.75,2.28,5.35,2.28,3.93-1.11,5.35-2.28,2.81-2.33,5.24-2.33,3.86,1.18,5.24,2.33,2.75,2.28,5.35,2.28a6.76,6.76,0,0,0,4.42-1.53l1.21,1.59A8.7,8.7,0,0,1,48,20.88Z"/></g></g></svg>