<svg xmlns="http://www.w3.org/2000/svg" viewBox="0 0 24.2 23.3"><defs><style>.cls-1{fill:#f7ff5a;}</style></defs><title>Asset 39</title><g id="Layer_2" data-name="Layer 2"><g id="Layer_1-2" data-name="Layer 1"><path class="cls-1" d="M14.66,1.59l1.53,3.1a2.85,2.85,0,0,0,2.15,1.56l3.42.5a2.85,2.85,0,0,1,1.58,4.86L20.86,14A2.85,2.85,0,0,0,20,16.55L20.63,20a2.85,2.85,0,0,1-4.14,3l-3.06-1.61a2.85,2.85,0,0,0-2.65,0L7.71,23a2.85,2.85,0,0,1-4.14-3l.58-3.41A2.85,2.85,0,0,0,3.34,14L.86,11.61A2.85,2.85,0,0,1,2.44,6.75l3.42-.5A2.85,2.85,0,0,0,8,4.69l1.53-3.1A2.85,2.85,0,0,1,14.66,1.59Z"/></g></g></svg>