<svg xmlns="http://www.w3.org/2000/svg" viewBox="0 0 49.83 55.17"><defs><style>.cls-1{fill:#fff;}</style></defs><title>Asset 8</title><g id="Layer_2" data-name="Layer 2"><g id="Layer_1-2" data-name="Layer 1"><path class="cls-1" d="M24,55.17H0V5.33L17.85,0V1.34a8.62,8.62,0,0,0,5.48,8l.91.35-.27.77V37.7H22V10.93a10.65,10.65,0,0,1-6-8.27L2,6.82V53.17H22v-9.1h2Z"/><path class="cls-1" d="M49.83,55.17h-24V44.08h2v9.1h20V6.82L33.89,2.66a10.65,10.65,0,0,1-6,8.27V37.7h-2V10.43l-.22-.75.85-.35a8.62,8.62,0,0,0,5.47-8V0L49.83,5.33Z"/><rect class="cls-1" x="1" y="36.7" width="47.83" height="2"/><rect class="cls-1" x="1" y="43.08" width="47.83" height="2"/><rect class="cls-1" x="4.95" y="18.36" width="14.08" height="2"/><rect class="cls-1" x="4.95" y="28.46" width="14.08" height="2"/><rect class="cls-1" x="30.8" y="18.36" width="14.08" height="2"/><rect class="cls-1" x="30.8" y="28.46" width="14.08" height="2"/><path class="cls-1" d="M31.8,45.08H18V36.7H31.8ZM20,43.08H29.8V38.7H20Z"/></g></g></svg>