<svg xmlns="http://www.w3.org/2000/svg" viewBox="0 0 27.25 38.63"><defs><style>.cls-1{fill:#fff;}</style></defs><title>Asset 16</title><g id="Layer_2" data-name="Layer 2"><g id="Layer_1-2" data-name="Layer 1"><path class="cls-1" d="M13.63,38.63,13,38C12.43,37.57,0,26.37,0,13.7v-.15a13.61,13.61,0,0,1,27.23,0v.16c0,12.67-12.43,23.87-13,24.34ZM13.63,2A11.63,11.63,0,0,0,2,13.61v.15c0,10.11,9.06,19.66,11.62,22.16,2.55-2.49,11.58-12,11.63-22.15v-.16A11.63,11.63,0,0,0,13.63,2Zm0,20.61a9,9,0,1,1,9-9A9,9,0,0,1,13.63,22.61Zm0-16a7,7,0,1,0,7,7A7,7,0,0,0,13.63,6.62Z"/></g></g></svg>