<svg xmlns="http://www.w3.org/2000/svg" xmlns:xlink="http://www.w3.org/1999/xlink" viewBox="0 0 147.4 89.55"><defs><style>.cls-1{fill:url(#linear-gradient);}.cls-2{fill:#2b2b2b;}.cls-3{fill:#fff;}</style><linearGradient id="linear-gradient" x1="115.67" y1="114.86" x2="31.73" y2="30.92" gradientUnits="userSpaceOnUse"><stop offset="0" stop-color="#2ac6ff"/><stop offset="1" stop-color="#fffaa7"/></linearGradient></defs><title>Asset 28</title><g id="Layer_2" data-name="Layer 2"><g id="Layer_1-2" data-name="Layer 1"><path class="cls-1" d="M0,83.13c6.12,0,7,6.42,14.74,6.42s8.62-6.42,14.74-6.42,7,6.42,14.74,6.42S52.84,83.13,59,83.13s7,6.42,14.74,6.42,8.62-6.42,14.74-6.42,7,6.42,14.74,6.42,8.62-6.42,14.74-6.42,7,6.42,14.74,6.42,8.62-6.42,14.74-6.42V62.64c-6.12,0-7,6.42-14.74,6.42s-8.62-6.42-14.74-6.42-7,6.42-14.74,6.42-8.62-6.42-14.74-6.42-7,6.42-14.74,6.42S65.08,62.64,59,62.64s-7,6.42-14.74,6.42-8.62-6.42-14.74-6.42-7,6.42-14.74,6.42S6.12,62.64,0,62.64Z"/><path class="cls-2" d="M61.52,13.18A6.59,6.59,0,0,1,56.42,2.42a6.59,6.59,0,0,1,10.21,8.34,6.55,6.55,0,0,1-4.45,2.39C62,13.17,61.74,13.18,61.52,13.18ZM61.53,3l-.36,0A3.59,3.59,0,1,0,65.1,6.23h0A3.6,3.6,0,0,0,61.53,3Z"/><polygon class="cls-2" points="69.44 63.02 66.44 63.02 66.44 17.75 66.28 16.1 70.57 16.1 75.26 20.53 85 19.44 85.34 22.43 74.21 23.67 69.46 19.18 69.44 63.02"/><polygon class="cls-2" points="57.94 64.1 54.94 64.1 54.94 17.26 59.67 17.26 64.26 24.5 76.36 22.95 76.74 25.93 62.75 27.71 58.02 20.26 57.94 20.26 57.94 64.1"/><path class="cls-2" d="M69.84,72.71a276.15,276.15,0,0,1-31.45-1.64l.38-3c.34,0,34.13,4.28,70.73-1.14l.44,3A276.91,276.91,0,0,1,69.84,72.71Z"/><rect class="cls-3" x="66.95" y="65.52" width="13.5" height="19.31" rx="6.75" ry="6.75" transform="translate(16.92 -13.48) rotate(11.8)"/><path class="cls-2" d="M73.11,86.27a8.26,8.26,0,0,1-1.69-.18h0A8.27,8.27,0,0,1,65,76.33l1.19-5.69A8.25,8.25,0,0,1,82.37,74l-1.19,5.69a8.28,8.28,0,0,1-8.07,6.56Zm1.18-19.19a5.28,5.28,0,0,0-5.14,4.18L68,76.95A5.27,5.27,0,0,0,72,83.16h0a5.27,5.27,0,0,0,6.21-4.07l1.19-5.69a5.25,5.25,0,0,0-5.14-6.32Z"/><rect class="cls-2" x="59.57" y="44.41" width="40.48" height="3" transform="translate(18.56 114.65) rotate(-78.21)"/></g></g></svg>