<svg xmlns="http://www.w3.org/2000/svg" xmlns:xlink="http://www.w3.org/1999/xlink" viewBox="0 0 147.4 85.14"><defs><style>.cls-1{fill:url(#linear-gradient);}.cls-2{fill:#2b2b2b;}</style><linearGradient id="linear-gradient" x1="115.67" y1="110.45" x2="31.73" y2="26.51" gradientUnits="userSpaceOnUse"><stop offset="0" stop-color="#2ac6ff"/><stop offset="1" stop-color="#fffaa7"/></linearGradient></defs><title>Asset 27</title><g id="Layer_2" data-name="Layer 2"><g id="Layer_1-2" data-name="Layer 1"><path class="cls-1" d="M0,78.72c6.12,0,7,6.42,14.74,6.42s8.62-6.42,14.74-6.42,7,6.42,14.74,6.42S52.84,78.72,59,78.72s7,6.42,14.74,6.42,8.62-6.42,14.74-6.42,7,6.42,14.74,6.42,8.62-6.42,14.74-6.42,7,6.42,14.74,6.42,8.62-6.42,14.74-6.42V58.23c-6.12,0-7,6.42-14.74,6.42s-8.62-6.42-14.74-6.42-7,6.42-14.74,6.42-8.62-6.42-14.74-6.42-7,6.42-14.74,6.42S65.08,58.23,59,58.23s-7,6.42-14.74,6.42-8.62-6.42-14.74-6.42-7,6.42-14.74,6.42S6.12,58.23,0,58.23Z"/><path class="cls-2" d="M47.94,13.18a6.59,6.59,0,1,1,6.56-7.25h0a6.59,6.59,0,0,1-5.9,7.22Q48.27,13.18,47.94,13.18ZM48,3l-.36,0A3.59,3.59,0,1,0,48,3Z"/><polygon class="cls-2" points="69.61 60.35 67.99 44.22 57.06 36.65 55.01 16.26 65.02 15.27 73.31 13.08 74.08 15.98 65.42 18.25 58.3 18.95 59.91 34.98 70.83 42.54 72.59 60.05 69.61 60.35"/><polygon class="cls-2" points="50.49 63.55 47.68 62.5 52.41 49.88 46.18 38.83 43.85 20.4 39.24 20.86 31.09 31.6 28.7 29.79 37.64 18.01 46.46 17.12 49.08 37.87 55.71 49.63 50.49 63.55"/><path class="cls-2" d="M42.52,71.86a132.79,132.79,0,0,1-15.42-.79l.39-3c.41.05,40.82,5.16,71.39-11.62l1.44,2.63C80.83,69.81,57.52,71.86,42.52,71.86Z"/><path class="cls-2" d="M108.16,73.19H95.63v-3h12.53a13.51,13.51,0,1,0-4.49-26.26l-1-2.83a16.51,16.51,0,1,1,5.48,32.09Z"/><path class="cls-2" d="M109.24,73.19v-3A23.88,23.88,0,1,0,87.24,37l-2.76-1.17a26.88,26.88,0,1,1,24.76,37.34Z"/></g></g></svg>