<svg xmlns="http://www.w3.org/2000/svg" viewBox="0 0 51.94 45.18"><defs><style>.cls-1{fill:#2b2b2b;}</style></defs><title>Asset 42</title><g id="Layer_2" data-name="Layer 2"><g id="Layer_1-2" data-name="Layer 1"><path class="cls-1" d="M42.85,45.18H9.08L0,12.93H51.94Zm-33-1H42.1l8.52-30.25H1.32Z"/><polygon class="cls-1" points="38.6 13.43 37.6 13.43 37.6 2 14.34 2 14.34 13.43 13.34 13.43 13.34 1 38.6 1 38.6 13.43"/><rect class="cls-1" x="3.18" y="23.35" width="45.57" height="1"/><rect class="cls-1" x="6.53" y="33.77" width="38.88" height="1"/><rect class="cls-1" x="11.71" y="13.21" width="1" height="31.69" transform="translate(-4.67 2.44) rotate(-9.59)"/><rect class="cls-1" x="20.88" y="13.41" width="1" height="31.3" transform="translate(-1.6 1.25) rotate(-3.22)"/><rect class="cls-1" x="14.9" y="28.56" width="31.3" height="1" transform="translate(-0.19 57.92) rotate(-86.75)"/><rect class="cls-1" x="23.88" y="28.56" width="31.69" height="1" transform="matrix(0.17, -0.99, 0.99, 0.17, 4.48, 63.41)"/><rect class="cls-1" x="16.54" width="18.85" height="3"/></g></g></svg>