<svg xmlns="http://www.w3.org/2000/svg" viewBox="0 0 25.26 25.25"><defs><style>.cls-1{fill:#75e533;}</style></defs><title>Asset 18</title><g id="Layer_2" data-name="Layer 2"><g id="Layer_1-2" data-name="Layer 1"><path class="cls-1" d="M25.25,19.92A1.22,1.22,0,0,1,24.88,21l-3.56,3.53a2,2,0,0,1-.63.45,2.6,2.6,0,0,1-.76.24h-.51a12.32,12.32,0,0,1-1.64-.17A12.49,12.49,0,0,1,15,24.22a23.32,23.32,0,0,1-3.73-2,27.87,27.87,0,0,1-4.44-3.74,29.31,29.31,0,0,1-3.1-3.53,25.18,25.18,0,0,1-2-3.12A16.81,16.81,0,0,1,.62,9.19a13.7,13.7,0,0,1-.51-2A6.59,6.59,0,0,1,0,5.86c0-.32,0-.5,0-.53a2.6,2.6,0,0,1,.24-.76,2,2,0,0,1,.45-.63L4.28.37A1.18,1.18,0,0,1,5.14,0a1,1,0,0,1,.62.2A1.84,1.84,0,0,1,6.21.7L9.07,6.12a1.3,1.3,0,0,1,.13.94,1.67,1.67,0,0,1-.45.86L7.44,9.23a.45.45,0,0,0-.09.17.65.65,0,0,0,0,.2,4.84,4.84,0,0,0,.48,1.28,11.83,11.83,0,0,0,1,1.56,17.3,17.3,0,0,0,1.9,2.13,17.63,17.63,0,0,0,2.14,1.91,12.32,12.32,0,0,0,1.56,1,4.15,4.15,0,0,0,1,.39l.33.07.17,0a.45.45,0,0,0,.17-.09l1.52-1.55a1.64,1.64,0,0,1,1.12-.43,1.4,1.4,0,0,1,.72.16h0l5.16,3A1.34,1.34,0,0,1,25.25,19.92Z"/></g></g></svg>