<svg xmlns="http://www.w3.org/2000/svg" viewBox="0 0 57.62 66"><defs><style>.cls-1{fill:#fff;}</style></defs><title>Asset 4</title><g id="Layer_2" data-name="Layer 2"><g id="Layer_1-2" data-name="Layer 1"><path class="cls-1" d="M12.29,63.29l-.58-1a12.58,12.58,0,0,0-4.67-4,12.56,12.56,0,0,0-5.9-1.65L0,56.75l.09-1.14c0-.6,1.27-14.8,10.15-31.52C19.2,7.22,36.26.67,37,.4L38,0l.26,1.1c.18.75,4.3,18.55-4.67,35.42s-20,25.68-20.44,26.05ZM2.19,54.74A15.83,15.83,0,0,1,8,56.57a15.82,15.82,0,0,1,4.76,3.77A90.89,90.89,0,0,0,31.87,35.58c7.34-13.81,5.46-28.65,4.72-32.85C32.69,4.47,19.33,11.24,12,25A90.74,90.74,0,0,0,2.19,54.74Z"/><rect class="cls-1" x="-4.82" y="30.41" width="52.34" height="2" transform="translate(-16.41 35.54) rotate(-62.04)"/><rect class="cls-1" x="13.66" y="23.08" width="2" height="15.71" transform="translate(-11.02 8.3) rotate(-23.24)"/><rect class="cls-1" x="9.71" y="31.1" width="2" height="15.28" transform="translate(-14.42 7.37) rotate(-23.24)"/><rect class="cls-1" x="17.63" y="35.68" width="15.71" height="2" transform="translate(-6.42 5.42) rotate(-10.79)"/><rect class="cls-1" x="13.59" y="43.33" width="15.28" height="2" transform="translate(-7.92 4.76) rotate(-10.79)"/><path class="cls-1" d="M8.29,66l-.13-1.14a12.58,12.58,0,0,0-2.64-5.52A15,15,0,0,0,3,56.77L4.22,55.2a17,17,0,0,1,2.87,2.91A15.84,15.84,0,0,1,9.9,63.49,90.87,90.87,0,0,0,37.47,48.69c12.31-9.6,16.67-23.93,17.71-28.07A57.5,57.5,0,0,0,37.73,23.5l-.63-1.9a56.2,56.2,0,0,1,19.39-2.95l1.13.07-.21,1.11c-.14.76-3.65,18.69-18.71,30.43S10,65.56,9.4,65.71Z"/><rect class="cls-1" x="28.1" y="31.1" width="24.72" height="2" transform="translate(-11.19 31.64) rotate(-37.92)"/><rect class="cls-1" x="31.74" y="41.19" width="2" height="12.53" transform="translate(-20.98 68.41) rotate(-76.71)"/><rect class="cls-1" x="25.91" y="48.14" width="2" height="9.68" transform="translate(-30.84 66.99) rotate(-76.71)"/></g></g></svg>