<svg xmlns="http://www.w3.org/2000/svg" viewBox="0 0 66.52 59.89"><defs><style>.cls-1{fill:#2b2b2b;}</style></defs><title>Asset 11</title><g id="Layer_2" data-name="Layer 2"><g id="Layer_1-2" data-name="Layer 1"><path class="cls-1" d="M23.41,28.66H0L11.71,8.39Zm-19.95-2H19.95L11.71,12.39Z"/><rect class="cls-1" x="10.71" width="2" height="10.39"/><rect class="cls-1" x="5.82" y="26.66" width="11.78" height="2"/><path class="cls-1" d="M19.16,59.89a5.53,5.53,0,0,1-4.73-8.34L39.85,8.62a5.52,5.52,0,1,1,9.51,5.63L23.93,57.18a5.48,5.48,0,0,1-3.38,2.53A5.58,5.58,0,0,1,19.16,59.89Zm-3-7.32a3.52,3.52,0,0,0,6.07,3.59L47.64,13.23a3.52,3.52,0,1,0-6.07-3.59L16.15,52.57Z"/><path class="cls-1" d="M35.55,59.89a5.53,5.53,0,0,1-4.73-8.34l.86.51-.86-.51L56.24,8.62a5.52,5.52,0,0,1,9.51,5.63L40.33,57.18a5.48,5.48,0,0,1-3.38,2.53A5.58,5.58,0,0,1,35.55,59.89ZM61,7.91a3.53,3.53,0,0,0-3,1.73L32.54,52.57a3.52,3.52,0,0,0,6.07,3.59L64,13.23a3.52,3.52,0,0,0-3-5.32Z"/><path class="cls-1" d="M26,48.25a3.37,3.37,0,0,1-1.69-.45l-2.22-1.28a3.39,3.39,0,0,1,3.39-5.87l2.22,1.28A3.39,3.39,0,0,1,26,48.25Zm-2.2-6.06a1.43,1.43,0,0,0-.37,0,1.39,1.39,0,0,0-.34,2.55l2.22,1.28a1.39,1.39,0,1,0,1.39-2.41l-2.22-1.28A1.37,1.37,0,0,0,23.82,42.18Z"/><path class="cls-1" d="M33.2,36.29a3.36,3.36,0,0,1-1.69-.45L29.3,34.55a3.39,3.39,0,0,1,.82-6.21,3.36,3.36,0,0,1,2.57.34L34.91,30a3.39,3.39,0,0,1-.82,6.21A3.45,3.45,0,0,1,33.2,36.29ZM31,30.22a1.43,1.43,0,0,0-.37,0,1.39,1.39,0,0,0-.34,2.55l2.22,1.28a1.4,1.4,0,0,0,1.9-.51,1.39,1.39,0,0,0-.51-1.9l-2.22-1.28A1.37,1.37,0,0,0,31,30.22Z"/><path class="cls-1" d="M42.42,48.25a3.37,3.37,0,0,1-1.69-.45l-2.22-1.28a3.39,3.39,0,0,1,3.39-5.87l2.22,1.28a3.39,3.39,0,0,1-1.71,6.33Zm-2.2-6.06a1.43,1.43,0,0,0-.37,0,1.39,1.39,0,0,0-.34,2.55l2.22,1.28a1.39,1.39,0,1,0,1.39-2.41l-2.22-1.28A1.37,1.37,0,0,0,40.22,42.18Z"/><path class="cls-1" d="M49.6,36.29a3.36,3.36,0,0,1-1.69-.45l-2.22-1.28a3.39,3.39,0,0,1,3.39-5.87L51.3,30a3.39,3.39,0,0,1-.82,6.21A3.45,3.45,0,0,1,49.6,36.29Zm-2.2-6.06a1.43,1.43,0,0,0-.37,0,1.39,1.39,0,0,0-.34,2.55l2.22,1.28a1.4,1.4,0,0,0,1.9-.51,1.39,1.39,0,0,0-.51-1.9l-2.22-1.28A1.37,1.37,0,0,0,47.39,30.22Z"/></g></g></svg>