<svg xmlns="http://www.w3.org/2000/svg" viewBox="0 0 25.2 24.3"><defs><style>.cls-1{fill:none;stroke:#f7ff5a;stroke-miterlimit:10;}.cls-2{fill:#f7ff5a;}</style></defs><title>Asset 40</title><g id="Layer_2" data-name="Layer 2"><g id="Layer_1-2" data-name="Layer 1"><path class="cls-1" d="M15.16,2.09l1.53,3.1a2.85,2.85,0,0,0,2.15,1.56l3.42.5a2.85,2.85,0,0,1,1.58,4.86l-2.48,2.41A2.85,2.85,0,0,0,20.54,17l.58,3.41a2.85,2.85,0,0,1-4.14,3l-3.06-1.61a2.85,2.85,0,0,0-2.65,0L8.21,23.46a2.85,2.85,0,0,1-4.14-3L4.66,17a2.85,2.85,0,0,0-.82-2.52L1.36,12.11A2.85,2.85,0,0,1,2.94,7.25l3.42-.5A2.85,2.85,0,0,0,8.51,5.19L10,2.09A2.85,2.85,0,0,1,15.16,2.09Z"/><path class="cls-2" d="M12.6,21.53a2.85,2.85,0,0,0-1.33.33L8.21,23.46a2.85,2.85,0,0,1-4.14-3L4.66,17a2.85,2.85,0,0,0-.82-2.52L1.36,12.11A2.85,2.85,0,0,1,2.94,7.25l3.42-.5A2.85,2.85,0,0,0,8.51,5.19L10,2.09A2.82,2.82,0,0,1,12.6.5Z"/></g></g></svg>