<svg xmlns="http://www.w3.org/2000/svg" viewBox="0 0 69.76 66"><defs><style>.cls-1{fill:#2b2b2b;}</style></defs><title>Asset 10</title><g id="Layer_2" data-name="Layer 2"><g id="Layer_1-2" data-name="Layer 1"><path class="cls-1" d="M24.44,63.29l-.58-1a12.6,12.6,0,0,0-4.67-4,12.4,12.4,0,0,0-5.9-1.65l-1.15.07.09-1.15c0-.6,1.27-14.8,10.15-31.52C31.34,7.22,48.4.67,49.12.4L50.18,0l.26,1.1c.18.75,4.3,18.55-4.67,35.42S25.8,62.2,25.34,62.57Zm-10.1-8.56a15.8,15.8,0,0,1,5.78,1.83,15.83,15.83,0,0,1,4.76,3.77A90.86,90.86,0,0,0,44,35.58C51.34,21.8,49.47,6.94,48.73,2.73,44.83,4.47,31.47,11.24,24.14,25A90.73,90.73,0,0,0,14.34,54.74Z"/><rect class="cls-1" x="7.32" y="30.41" width="52.34" height="2" transform="translate(-9.96 46.26) rotate(-62.04)"/><rect class="cls-1" x="25.81" y="23.08" width="2" height="15.71" transform="translate(-10.03 13.09) rotate(-23.24)"/><rect class="cls-1" x="21.85" y="31.1" width="2" height="15.28" transform="translate(-13.43 12.16) rotate(-23.24)"/><rect class="cls-1" x="29.77" y="35.68" width="15.71" height="2" transform="translate(-6.2 7.69) rotate(-10.79)"/><rect class="cls-1" x="25.73" y="43.33" width="15.28" height="2" transform="translate(-7.71 7.03) rotate(-10.79)"/><path class="cls-1" d="M20.43,66l-.13-1.14a12.58,12.58,0,0,0-2.64-5.52,14.94,14.94,0,0,0-2.53-2.57l1.24-1.57a17,17,0,0,1,2.87,2.91A15.84,15.84,0,0,1,22,63.49,90.87,90.87,0,0,0,49.61,48.69c12.33-9.61,16.68-23.93,17.71-28.07A58.22,58.22,0,0,0,49.88,23.5l-.63-1.9a56.23,56.23,0,0,1,19.39-2.95l1.13.07-.21,1.11c-.14.76-3.65,18.69-18.71,30.43S22.12,65.56,21.54,65.71Z"/><rect class="cls-1" x="40.24" y="31.1" width="24.72" height="2" transform="translate(-8.62 39.1) rotate(-37.92)"/><rect class="cls-1" x="43.88" y="41.19" width="2" height="12.53" transform="translate(-11.63 80.22) rotate(-76.71)"/><rect class="cls-1" x="38.05" y="48.14" width="2" height="9.68" transform="translate(-21.49 78.8) rotate(-76.71)"/><path class="cls-1" d="M7.11,24.63A7.12,7.12,0,0,1,0,17.52V10a7.11,7.11,0,1,1,14.22,0v7.47A7.12,7.12,0,0,1,7.11,24.63Zm0-19.7A5.12,5.12,0,0,0,2,10v7.47a5.11,5.11,0,1,0,10.22,0V10A5.12,5.12,0,0,0,7.11,4.94Z"/><rect class="cls-1" x="6.48" y="23.63" width="2" height="42.17"/></g></g></svg>