<svg xmlns="http://www.w3.org/2000/svg" viewBox="0 0 91.17 77.39"><defs><style>.cls-1{fill:#1338d1;}</style></defs><title>Asset 1</title><g id="Layer_2" data-name="Layer 2"><g id="Layer_1-2" data-name="Layer 1"><circle class="cls-1" cx="26.05" cy="18" r="3.21"/><path class="cls-1" d="M48.29,27.27l-.3-.21s-4.21-2.83-10.38-.69h0l-.3.1-.23-.23a.55.55,0,0,1-.1-.61c.61-1.69,7.26-11.25,22.08-12.77l.8-.08-.28.75c-.1.28-2.65,7-11,13.5Zm-6-2.72a12.12,12.12,0,0,1,6,1.49A35.61,35.61,0,0,0,58.3,14C46.43,15.47,40.16,22.4,38.41,25.07A14.77,14.77,0,0,1,42.26,24.55Z"/><rect class="cls-1" x="41.81" y="18.76" width="19.31" height="1" transform="matrix(0.79, -0.61, 0.61, 0.79, -1.06, 35.41)"/><rect class="cls-1" x="30.72" y="17.25" width="3.01" height="1.5"/><rect class="cls-1" x="30.65" y="19.59" width="1.5" height="3.01" transform="translate(-2.56 37.74) rotate(-60)"/><rect class="cls-1" x="28.39" y="21.85" width="1.5" height="3.01" transform="translate(-7.77 17.7) rotate(-30)"/><rect class="cls-1" x="25.3" y="22.67" width="1.5" height="3.01"/><rect class="cls-1" x="21.46" y="22.6" width="3.01" height="1.5" transform="translate(-8.74 31.56) rotate(-60)"/><rect class="cls-1" x="19.2" y="20.34" width="3.01" height="1.5" transform="translate(-7.77 13.18) rotate(-30)"/><rect class="cls-1" x="18.37" y="17.25" width="3.01" height="1.5"/><rect class="cls-1" x="19.95" y="13.41" width="1.5" height="3.01" transform="translate(-2.56 25.39) rotate(-60)"/><rect class="cls-1" x="22.21" y="11.15" width="1.5" height="3.01" transform="translate(-3.25 13.18) rotate(-30)"/><rect class="cls-1" x="25.3" y="10.32" width="1.5" height="3.01"/><rect class="cls-1" x="27.64" y="11.9" width="3.01" height="1.5" transform="matrix(0.5, -0.87, 0.87, 0.5, 3.61, 31.56)"/><rect class="cls-1" x="29.9" y="14.16" width="3.01" height="1.5" transform="translate(-3.25 17.7) rotate(-30)"/><path class="cls-1" d="M85.49,9l-.08.09Q83.93,9,82.41,9A29.81,29.81,0,0,0,55.24,26.52c-2.37,4.51-5.74,2.09-5.74,2.09h0a16,16,0,0,0-21.8,5.93h0a3.06,3.06,0,0,1-4.14,1.08h0a8,8,0,0,0-9.9,1.49h0A18.16,18.16,0,0,0,24.3,40.54H72.89A18.34,18.34,0,0,0,91.17,22.26h0A18.24,18.24,0,0,0,85.49,9ZM32.23,33.28c6.68-6.76,15.36-2.88,15.36-2.88L49,33.28C41,29.27,32.23,33.28,32.23,33.28Zm26.88-5.85C66.37,12.57,84.28,12,84.28,12l1.13,2.5C67.63,15.87,59.11,27.44,59.11,27.44Zm6.26-1.54c8.14-7.89,20.76-9.2,20.76-9.2l1,2.56C77.58,19.84,65.37,25.89,65.37,25.89Z"/><path class="cls-1" d="M73.64,4H24.3A18.34,18.34,0,0,0,6,22.26H6a18.12,18.12,0,0,0,1.15,6.35h0S3.24,33.28,0,34H10.19l0-.21.1.12-.06.09a8.11,8.11,0,0,1,4.69-3.32l.1,0a12.57,12.57,0,0,1-3.46-8.42c0-9.13,7.4-15.53,16.53-15.53h47.2c3.11,0,5.86-3.51,5.86-6.73A9,9,0,0,1,73.64,4Z"/><path class="cls-1" d="M8.74,51.54a4,4,0,0,1,1.64.31,3.31,3.31,0,0,1,1.83,2,3.86,3.86,0,0,1,0,2.6,3.3,3.3,0,0,1-.68,1.15,3.48,3.48,0,0,1-1.15.82,3.93,3.93,0,0,1-1.64.32h-2a.4.4,0,0,0-.25.08.27.27,0,0,0-.11.23v2.34a.39.39,0,0,1-.16.33.64.64,0,0,1-.73,0,.39.39,0,0,1-.16-.33V52a.38.38,0,0,1,.15-.33.63.63,0,0,1,.34-.12Zm0,6.1a3,3,0,0,0,1.19-.22,2.38,2.38,0,0,0,.82-.57,2.29,2.29,0,0,0,.48-.8,2.84,2.84,0,0,0,.15-.93,2.9,2.9,0,0,0-.15-.93,2.28,2.28,0,0,0-.48-.81,2.38,2.38,0,0,0-.82-.57,3,3,0,0,0-1.19-.22h-2a.4.4,0,0,0-.26.09.29.29,0,0,0-.11.23v4.42a.29.29,0,0,0,.11.23.38.38,0,0,0,.25.09Z"/><path class="cls-1" d="M17.59,55.73a.46.46,0,0,0,.46.46h.85a.39.39,0,0,1,.33.16.64.64,0,0,1,0,.73.39.39,0,0,1-.33.16h-.85a.45.45,0,0,0-.33.14.51.51,0,0,0-.14.38v.48a3.11,3.11,0,0,0,.17,1.06,2.42,2.42,0,0,0,.5.84,2.31,2.31,0,0,0,.79.55,2.64,2.64,0,0,0,1.06.2,2.25,2.25,0,0,0,.77-.12,1.44,1.44,0,0,1,.55-.11.41.41,0,0,1,.26.13.68.68,0,0,1,.17.27.54.54,0,0,1,0,.31.38.38,0,0,1-.21.24,1.85,1.85,0,0,1-.35.15,2.94,2.94,0,0,1-.41.1l-.43.06-.38,0a3.67,3.67,0,0,1-1.47-.28,3.37,3.37,0,0,1-1.13-.78,3.48,3.48,0,0,1-.73-1.17,4.11,4.11,0,0,1-.26-1.47V55.16a4.11,4.11,0,0,1,.26-1.47,3.48,3.48,0,0,1,.73-1.17,3.37,3.37,0,0,1,1.13-.78,3.67,3.67,0,0,1,1.47-.28l.38,0,.43.06a3,3,0,0,1,.41.1,1.86,1.86,0,0,1,.35.15.38.38,0,0,1,.21.24.54.54,0,0,1,0,.31.68.68,0,0,1-.17.27.41.41,0,0,1-.26.13,1.44,1.44,0,0,1-.55-.11,2.25,2.25,0,0,0-.77-.12,2.64,2.64,0,0,0-1.06.2,2.31,2.31,0,0,0-.79.55,2.42,2.42,0,0,0-.5.84,3.11,3.11,0,0,0-.17,1.06Z"/><path class="cls-1" d="M27,61.69a.64.64,0,0,1-.73,0,.39.39,0,0,1-.16-.33V55.11a4,4,0,0,1,.32-1.64,3.46,3.46,0,0,1,.82-1.16,3.31,3.31,0,0,1,1.15-.68,3.87,3.87,0,0,1,2.6,0,3.31,3.31,0,0,1,2,1.84,4,4,0,0,1,.31,1.64v6.26a.39.39,0,0,1-.16.33.64.64,0,0,1-.73,0,.39.39,0,0,1-.16-.33V55.12a3,3,0,0,0-.21-1.2,2.39,2.39,0,0,0-.57-.82,2.23,2.23,0,0,0-.81-.48,2.9,2.9,0,0,0-1.87,0,2.28,2.28,0,0,0-.81.48,2.31,2.31,0,0,0-.57.82,3,3,0,0,0-.21,1.18v6.26A.39.39,0,0,1,27,61.69Z"/><path class="cls-1" d="M44.07,56.26a.61.61,0,0,1,.73,0,.4.4,0,0,1,.16.34v4.64a.52.52,0,0,1-.16.46.67.67,0,0,1-.73,0,.52.52,0,0,1-.16-.46.13.13,0,0,0-.22-.09,3.32,3.32,0,0,1-1.09.59,3.9,3.9,0,0,1-2.52,0A3.31,3.31,0,0,1,38.93,61a3.48,3.48,0,0,1-.82-1.15,3.93,3.93,0,0,1-.32-1.64V55.1a4.12,4.12,0,0,1,.26-1.47,3.34,3.34,0,0,1,1.85-1.94,3.67,3.67,0,0,1,1.47-.28l.38,0,.42.06a3,3,0,0,1,.41.1l.35.14a.51.51,0,0,1,.23.26.53.53,0,0,1,0,.32.55.55,0,0,1-.16.27.44.44,0,0,1-.32.12,1.72,1.72,0,0,1-.55-.12,2.34,2.34,0,0,0-.78-.12,2.65,2.65,0,0,0-1.06.2,2.31,2.31,0,0,0-.79.55A2.41,2.41,0,0,0,39,54a3.12,3.12,0,0,0-.17,1.06v3.13a3,3,0,0,0,.21,1.18,2.31,2.31,0,0,0,.57.82,2.27,2.27,0,0,0,.81.48,2.9,2.9,0,0,0,1.87,0,2.27,2.27,0,0,0,.81-.48,2.31,2.31,0,0,0,.57-.82,3,3,0,0,0,.21-1.18V56.6A.4.4,0,0,1,44.07,56.26Z"/><path class="cls-1" d="M55.78,51.66a.64.64,0,0,1,.73,0,.39.39,0,0,1,.16.33v6.23a3.93,3.93,0,0,1-.32,1.64A3.48,3.48,0,0,1,55.54,61a3.31,3.31,0,0,1-1.15.68,3.87,3.87,0,0,1-2.6,0,3.31,3.31,0,0,1-2-1.84,4,4,0,0,1-.31-1.64V52a.39.39,0,0,1,.16-.33.64.64,0,0,1,.73,0,.39.39,0,0,1,.16.33V58.2a3.1,3.1,0,0,0,.21,1.21,2.25,2.25,0,0,0,1.37,1.3,2.92,2.92,0,0,0,1.87,0,2.27,2.27,0,0,0,.81-.48,2.31,2.31,0,0,0,.57-.82,3,3,0,0,0,.21-1.18V52A.39.39,0,0,1,55.78,51.66Z"/><path class="cls-1" d="M61.57,51.66a.64.64,0,0,1,.73,0,.39.39,0,0,1,.16.33v9.36a.39.39,0,0,1-.16.33.64.64,0,0,1-.73,0,.39.39,0,0,1-.16-.33V52A.39.39,0,0,1,61.57,51.66Z"/><path class="cls-1" d="M68.08,61.69a.64.64,0,0,1-.73,0,.39.39,0,0,1-.16-.33V55.11a4,4,0,0,1,.32-1.64,3.46,3.46,0,0,1,.82-1.16,3.31,3.31,0,0,1,1.15-.68,3.87,3.87,0,0,1,2.6,0,3.31,3.31,0,0,1,2,1.84,4,4,0,0,1,.31,1.64v6.26a.39.39,0,0,1-.16.33.64.64,0,0,1-.73,0,.39.39,0,0,1-.16-.33V55.12a3,3,0,0,0-.21-1.2,2.39,2.39,0,0,0-.57-.82,2.23,2.23,0,0,0-.81-.48,2.9,2.9,0,0,0-1.87,0,2.28,2.28,0,0,0-.81.48,2.31,2.31,0,0,0-.57.82,3,3,0,0,0-.21,1.18v6.26A.39.39,0,0,1,68.08,61.69Z"/><path class="cls-1" d="M79.79,61.69a.64.64,0,0,1-.73,0,.39.39,0,0,1-.16-.33V55.11a4,4,0,0,1,.32-1.64A3.46,3.46,0,0,1,80,52.31a3.31,3.31,0,0,1,1.15-.68,3.87,3.87,0,0,1,2.6,0,3.31,3.31,0,0,1,2,1.84,4,4,0,0,1,.31,1.64v6.26a.39.39,0,0,1-.16.33.64.64,0,0,1-.73,0,.39.39,0,0,1-.16-.33V55.12a3,3,0,0,0-.21-1.2,2.39,2.39,0,0,0-.57-.82,2.23,2.23,0,0,0-.81-.48,2.9,2.9,0,0,0-1.87,0,2.28,2.28,0,0,0-.81.48,2.31,2.31,0,0,0-.57.82A3,3,0,0,0,80,55.1v6.26A.39.39,0,0,1,79.79,61.69Z"/><path class="cls-1" d="M1.68,75.09a1.58,1.58,0,0,0,.33.57A1.63,1.63,0,0,0,2.6,76a2.18,2.18,0,0,0,.84.15H6A2.18,2.18,0,0,0,6.85,76a1.58,1.58,0,0,0,.58-.4,1.64,1.64,0,0,0,.33-.57,2,2,0,0,0,.11-.66,2,2,0,0,0-.11-.65,1.65,1.65,0,0,0-.33-.57,1.58,1.58,0,0,0-.58-.4A2.18,2.18,0,0,0,6,72.65H3.7a3.12,3.12,0,0,1-1.28-.24,2.71,2.71,0,0,1-.91-.64,2.63,2.63,0,0,1-.54-.9,3,3,0,0,1,0-2.05,2.62,2.62,0,0,1,1.45-1.55A3.12,3.12,0,0,1,3.7,67h2A3.12,3.12,0,0,1,7,67.27a2.63,2.63,0,0,1,1.45,1.55,3,3,0,0,1,.18,1,.41.41,0,0,1-.15.34.58.58,0,0,1-.37.12.56.56,0,0,1-.37-.12.42.42,0,0,1-.15-.34,2,2,0,0,0-.11-.66,1.58,1.58,0,0,0-.33-.57,1.63,1.63,0,0,0-.58-.39,2.18,2.18,0,0,0-.84-.15h-2a2.18,2.18,0,0,0-.84.15,1.63,1.63,0,0,0-.58.39,1.58,1.58,0,0,0-.33.57,2,2,0,0,0,0,1.31,1.58,1.58,0,0,0,.33.57,1.63,1.63,0,0,0,.58.39,2.18,2.18,0,0,0,.84.15H6a3.15,3.15,0,0,1,1.29.24,2.67,2.67,0,0,1,.91.64,2.61,2.61,0,0,1,.53.9,3.1,3.1,0,0,1,.17,1,3.13,3.13,0,0,1-.17,1,2.61,2.61,0,0,1-.53.9A2.67,2.67,0,0,1,7.3,77,3.15,3.15,0,0,1,6,77.24H3.44A3.12,3.12,0,0,1,2.16,77,2.64,2.64,0,0,1,.71,75.45a3,3,0,0,1-.18-1,.43.43,0,0,1,.15-.35A.56.56,0,0,1,1.06,74a.54.54,0,0,1,.37.13.44.44,0,0,1,.15.35A2,2,0,0,0,1.68,75.09Z"/><path class="cls-1" d="M19.56,67.1a.64.64,0,0,1,.73,0,.39.39,0,0,1,.16.33v6.23a3.93,3.93,0,0,1-.32,1.64,3.48,3.48,0,0,1-.82,1.15,3.31,3.31,0,0,1-1.15.68,3.87,3.87,0,0,1-2.6,0,3.31,3.31,0,0,1-2-1.84,4,4,0,0,1-.31-1.64V67.44a.39.39,0,0,1,.16-.33.64.64,0,0,1,.73,0,.39.39,0,0,1,.16.33v6.21a3.1,3.1,0,0,0,.21,1.21,2.25,2.25,0,0,0,1.37,1.3,2.92,2.92,0,0,0,1.87,0,2.27,2.27,0,0,0,.81-.48,2.31,2.31,0,0,0,.57-.82,3,3,0,0,0,.21-1.18V67.44A.39.39,0,0,1,19.56,67.1Z"/><path class="cls-1" d="M28.64,67a4,4,0,0,1,1.64.31,3.31,3.31,0,0,1,1.83,2,3.91,3.91,0,0,1,.23,1.3A4,4,0,0,1,32,72.18a3.05,3.05,0,0,1-1.09,1.3.19.19,0,0,0-.09.12.1.1,0,0,0,.05.11,3.43,3.43,0,0,1,1.07,1.2,3.83,3.83,0,0,1,.41,1.86.41.41,0,0,1-.16.36.64.64,0,0,1-.73,0,.39.39,0,0,1-.16-.33,3.1,3.1,0,0,0-.21-1.21,2.25,2.25,0,0,0-1.37-1.3,2.84,2.84,0,0,0-.93-.15H26.61a.4.4,0,0,0-.25.08.27.27,0,0,0-.11.23V76.8a.39.39,0,0,1-.16.33.64.64,0,0,1-.73,0,.39.39,0,0,1-.16-.33V67.43a.38.38,0,0,1,.15-.33.63.63,0,0,1,.34-.12Zm0,6.1a3,3,0,0,0,1.19-.22,2.38,2.38,0,0,0,.82-.57,2.29,2.29,0,0,0,.48-.8,2.84,2.84,0,0,0,.15-.93,2.9,2.9,0,0,0-.15-.93,2.28,2.28,0,0,0-.48-.81,2.38,2.38,0,0,0-.82-.57A3,3,0,0,0,28.64,68h-2a.4.4,0,0,0-.26.09.29.29,0,0,0-.11.23v4.42a.29.29,0,0,0,.11.23.38.38,0,0,0,.25.09Z"/><path class="cls-1" d="M40.81,71.68a.64.64,0,0,1,0,.73.39.39,0,0,1-.33.16H38.39a.44.44,0,0,0-.32.13.43.43,0,0,0-.13.32V76.8a.39.39,0,0,1-.16.33.64.64,0,0,1-.73,0,.39.39,0,0,1-.16-.33V67.52a.53.53,0,0,1,.53-.53h4.47a.39.39,0,0,1,.33.16.61.61,0,0,1,.12.37.61.61,0,0,1-.12.37.39.39,0,0,1-.33.15H38.39a.46.46,0,0,0-.45.45v2.58a.46.46,0,0,0,.45.45h2.09A.39.39,0,0,1,40.81,71.68Z"/><path class="cls-1" d="M53.75,69.09a3.32,3.32,0,0,1,1.86-1.94,3.71,3.71,0,0,1,1.47-.28l.37,0,.42.06.41.1a2.53,2.53,0,0,1,.35.14.43.43,0,0,1,.22.25.56.56,0,0,1,0,.32.58.58,0,0,1-.15.27.42.42,0,0,1-.31.12,1.77,1.77,0,0,1-.55-.11,2.41,2.41,0,0,0-.77-.11,2.65,2.65,0,0,0-1.06.2,2.31,2.31,0,0,0-1.29,1.38,3.12,3.12,0,0,0-.17,1.06v3.1a3.12,3.12,0,0,0,.17,1.06A2.31,2.31,0,0,0,56,76.1a2.65,2.65,0,0,0,1.06.2,2.41,2.41,0,0,0,.77-.11,1.77,1.77,0,0,1,.55-.11.42.42,0,0,1,.31.12.58.58,0,0,1,.15.27.56.56,0,0,1,0,.32.43.43,0,0,1-.22.25,1.81,1.81,0,0,1-.35.15l-.41.1-.42.06-.37,0a3.72,3.72,0,0,1-1.47-.28,3.35,3.35,0,0,1-1.13-.78,3.48,3.48,0,0,1-.73-1.17,4.11,4.11,0,0,1-.26-1.47v-3.1A4.12,4.12,0,0,1,53.75,69.09Z"/><path class="cls-1" d="M63.25,67.1a.64.64,0,0,1,.73,0,.39.39,0,0,1,.16.33V73.7a3,3,0,0,0,.21,1.18,2.31,2.31,0,0,0,.57.82,2.27,2.27,0,0,0,.81.48,2.9,2.9,0,0,0,.93.15,2.7,2.7,0,0,0,1.12-.23.43.43,0,0,1,.22-.05.43.43,0,0,1,.35.15.63.63,0,0,1,.14.37.47.47,0,0,1-.06.28.5.5,0,0,1-.21.19,3.16,3.16,0,0,1-.77.26,4.1,4.1,0,0,1-.79.08,3.91,3.91,0,0,1-1.3-.23,3.31,3.31,0,0,1-1.15-.68,3.48,3.48,0,0,1-.82-1.15,3.94,3.94,0,0,1-.32-1.64V67.44A.39.39,0,0,1,63.25,67.1Z"/><path class="cls-1" d="M78.48,67.1a.64.64,0,0,1,.73,0,.39.39,0,0,1,.16.33v6.23a3.93,3.93,0,0,1-.32,1.64,3.48,3.48,0,0,1-.82,1.15,3.31,3.31,0,0,1-1.15.68,3.87,3.87,0,0,1-2.6,0,3.31,3.31,0,0,1-2-1.84,4,4,0,0,1-.31-1.64V67.44a.39.39,0,0,1,.16-.33.64.64,0,0,1,.73,0,.39.39,0,0,1,.16.33v6.21a3.1,3.1,0,0,0,.21,1.21,2.25,2.25,0,0,0,1.37,1.3,2.92,2.92,0,0,0,1.87,0,2.27,2.27,0,0,0,.81-.48,2.31,2.31,0,0,0,.57-.82,3,3,0,0,0,.21-1.18V67.44A.39.39,0,0,1,78.48,67.1Z"/><path class="cls-1" d="M84.26,67.14a.51.51,0,0,1,.37-.15h2.15a3.58,3.58,0,0,1,1.46.28,3,3,0,0,1,1,.73,3.05,3.05,0,0,1,.61,1,3.49,3.49,0,0,1,.2,1.15,3.33,3.33,0,0,1-.46,1.73.13.13,0,0,0,0,.09.2.2,0,0,0,.06.14,3.36,3.36,0,0,1,.74,1,2.73,2.73,0,0,1,.26,1.18,3,3,0,0,1-.18,1A2.63,2.63,0,0,1,89,76.9a3.11,3.11,0,0,1-1.28.24H84.63a.53.53,0,0,1-.53-.53V67.52A.51.51,0,0,1,84.26,67.14Zm4.22,4.46a.1.1,0,0,0,.08,0A2.19,2.19,0,0,0,89,70.18a2.47,2.47,0,0,0-.13-.79,1.9,1.9,0,0,0-.41-.69,2,2,0,0,0-.7-.48,2.56,2.56,0,0,0-1-.18H85.47a.3.3,0,0,0-.22.09.31.31,0,0,0-.09.23V71.2a.31.31,0,0,0,.09.23.3.3,0,0,0,.22.09h2.28A3.37,3.37,0,0,1,88.48,71.6Zm.1,4.35a1.63,1.63,0,0,0,.58-.39,1.59,1.59,0,0,0,.33-.56,2,2,0,0,0,.11-.66,2,2,0,0,0-.11-.65,1.59,1.59,0,0,0-.33-.56,1.63,1.63,0,0,0-.58-.39,2.54,2.54,0,0,0-1-.15H85.47a.31.31,0,0,0-.31.31v2.9a.31.31,0,0,0,.31.31h2.28A2.14,2.14,0,0,0,88.58,75.94Z"/></g></g></svg>