<svg xmlns="http://www.w3.org/2000/svg" viewBox="0 0 90.13 25.99"><defs><style>.cls-1{fill:#fff;}</style></defs><title>Asset 2</title><g id="Layer_2" data-name="Layer 2"><g id="Layer_1-2" data-name="Layer 1"><path class="cls-1" d="M8.21.14A4,4,0,0,1,9.84.45a3.31,3.31,0,0,1,1.83,2,3.86,3.86,0,0,1,0,2.6A3.3,3.3,0,0,1,11,6.17,3.47,3.47,0,0,1,9.84,7a3.93,3.93,0,0,1-1.64.32h-2a.4.4,0,0,0-.25.08.27.27,0,0,0-.11.23V10a.39.39,0,0,1-.16.33.64.64,0,0,1-.73,0A.39.39,0,0,1,4.76,10V.59A.38.38,0,0,1,4.9.26.64.64,0,0,1,5.25.14Zm0,6.1A3,3,0,0,0,9.39,6a2.38,2.38,0,0,0,.82-.57,2.29,2.29,0,0,0,.48-.8,2.84,2.84,0,0,0,.15-.93,2.9,2.9,0,0,0-.15-.93A2.28,2.28,0,0,0,10.22,2a2.38,2.38,0,0,0-.82-.57,3,3,0,0,0-1.19-.22h-2a.4.4,0,0,0-.26.09.28.28,0,0,0-.11.23V5.92a.29.29,0,0,0,.11.23.39.39,0,0,0,.25.09Z"/><path class="cls-1" d="M17.06,4.33a.46.46,0,0,0,.46.46h.85a.39.39,0,0,1,.33.16.64.64,0,0,1,0,.73.39.39,0,0,1-.33.16h-.85A.45.45,0,0,0,17.2,6a.51.51,0,0,0-.14.38v.48a3.11,3.11,0,0,0,.17,1.06,2.42,2.42,0,0,0,.5.84,2.32,2.32,0,0,0,.79.55,2.65,2.65,0,0,0,1.06.2,2.25,2.25,0,0,0,.77-.12,1.43,1.43,0,0,1,.55-.11.41.41,0,0,1,.26.13.67.67,0,0,1,.17.27.54.54,0,0,1,0,.31.38.38,0,0,1-.21.25,1.86,1.86,0,0,1-.35.15,3,3,0,0,1-.41.1l-.43.06-.38,0a3.67,3.67,0,0,1-1.47-.28A3.38,3.38,0,0,1,17,9.49a3.49,3.49,0,0,1-.73-1.17A4.1,4.1,0,0,1,16,6.84V3.76a4.11,4.11,0,0,1,.26-1.47A3.48,3.48,0,0,1,17,1.11,3.37,3.37,0,0,1,18.12.33,3.67,3.67,0,0,1,19.59.05l.38,0,.43.06a3,3,0,0,1,.41.1,1.83,1.83,0,0,1,.35.15.38.38,0,0,1,.21.24.54.54,0,0,1,0,.31.68.68,0,0,1-.17.27.41.41,0,0,1-.26.13,1.43,1.43,0,0,1-.55-.11,2.25,2.25,0,0,0-.77-.12,2.65,2.65,0,0,0-1.06.2,2.31,2.31,0,0,0-.79.55,2.41,2.41,0,0,0-.5.84,3.11,3.11,0,0,0-.17,1.06Z"/><path class="cls-1" d="M26.44,10.29a.64.64,0,0,1-.73,0,.39.39,0,0,1-.16-.33V3.71a4,4,0,0,1,.32-1.64A3.46,3.46,0,0,1,26.68.91,3.31,3.31,0,0,1,27.82.23a3.86,3.86,0,0,1,2.6,0,3.38,3.38,0,0,1,1.15.68,3.36,3.36,0,0,1,.82,1.15A4,4,0,0,1,32.7,3.7V10a.39.39,0,0,1-.16.33.64.64,0,0,1-.73,0,.39.39,0,0,1-.16-.33V3.72a3,3,0,0,0-.21-1.2,2.4,2.4,0,0,0-.57-.82,2.22,2.22,0,0,0-.81-.48,2.89,2.89,0,0,0-1.87,0,2.27,2.27,0,0,0-.81.48,2.31,2.31,0,0,0-.57.82A3,3,0,0,0,26.6,3.7V10A.39.39,0,0,1,26.44,10.29Z"/><path class="cls-1" d="M43.54,4.86a.61.61,0,0,1,.73,0,.4.4,0,0,1,.16.34V9.84a.52.52,0,0,1-.16.46.67.67,0,0,1-.73,0,.52.52,0,0,1-.16-.46.13.13,0,0,0-.22-.09,3.33,3.33,0,0,1-1.09.59,3.9,3.9,0,0,1-2.52,0,3.31,3.31,0,0,1-1.15-.68,3.49,3.49,0,0,1-.82-1.15,3.93,3.93,0,0,1-.32-1.64V3.7a4.12,4.12,0,0,1,.26-1.47,3.39,3.39,0,0,1,.73-1.17A3.42,3.42,0,0,1,39.38.28,3.68,3.68,0,0,1,40.85,0l.38,0,.42.06a3,3,0,0,1,.41.1l.35.14a.51.51,0,0,1,.23.26.53.53,0,0,1,0,.32.55.55,0,0,1-.16.27.44.44,0,0,1-.32.12,1.72,1.72,0,0,1-.55-.12,2.35,2.35,0,0,0-.78-.12,2.64,2.64,0,0,0-1.06.2,2.3,2.3,0,0,0-.79.55,2.42,2.42,0,0,0-.5.84,3.12,3.12,0,0,0-.17,1.06V6.84A3,3,0,0,0,38.54,8a2.31,2.31,0,0,0,.57.82,2.27,2.27,0,0,0,.81.48,2.9,2.9,0,0,0,1.87,0,2.27,2.27,0,0,0,.81-.48A2.31,2.31,0,0,0,43.16,8a3,3,0,0,0,.21-1.18V5.2A.4.4,0,0,1,43.54,4.86Z"/><path class="cls-1" d="M55.25.26a.64.64,0,0,1,.73,0,.39.39,0,0,1,.16.33V6.83a3.93,3.93,0,0,1-.32,1.64A3.47,3.47,0,0,1,55,9.61a3.3,3.3,0,0,1-1.15.68,3.87,3.87,0,0,1-2.6,0,3.31,3.31,0,0,1-2-1.84A4,4,0,0,1,49,6.83V.59a.39.39,0,0,1,.16-.33.64.64,0,0,1,.73,0A.39.39,0,0,1,50,.59V6.8A3.1,3.1,0,0,0,50.25,8a2.25,2.25,0,0,0,1.37,1.3,2.92,2.92,0,0,0,1.87,0,2.29,2.29,0,0,0,.81-.48A2.31,2.31,0,0,0,54.87,8a3,3,0,0,0,.21-1.19V.59A.39.39,0,0,1,55.25.26Z"/><path class="cls-1" d="M61,.26a.64.64,0,0,1,.73,0,.39.39,0,0,1,.16.33V10a.39.39,0,0,1-.16.33.64.64,0,0,1-.73,0,.39.39,0,0,1-.16-.33V.59A.39.39,0,0,1,61,.26Z"/><path class="cls-1" d="M67.55,10.29a.64.64,0,0,1-.73,0,.39.39,0,0,1-.16-.33V3.71A4,4,0,0,1,67,2.07,3.46,3.46,0,0,1,67.79.91,3.31,3.31,0,0,1,68.93.23a3.86,3.86,0,0,1,2.6,0,3.38,3.38,0,0,1,1.15.68,3.36,3.36,0,0,1,.82,1.15,4,4,0,0,1,.31,1.64V10a.39.39,0,0,1-.16.33.64.64,0,0,1-.73,0,.39.39,0,0,1-.16-.33V3.72a3,3,0,0,0-.21-1.2A2.4,2.4,0,0,0,72,1.69a2.22,2.22,0,0,0-.81-.48,2.89,2.89,0,0,0-1.87,0,2.27,2.27,0,0,0-.81.48,2.31,2.31,0,0,0-.57.82,3,3,0,0,0-.21,1.18V10A.39.39,0,0,1,67.55,10.29Z"/><path class="cls-1" d="M79.26,10.29a.64.64,0,0,1-.73,0,.39.39,0,0,1-.16-.33V3.71a4,4,0,0,1,.32-1.64A3.46,3.46,0,0,1,79.5.91,3.31,3.31,0,0,1,80.65.23a3.86,3.86,0,0,1,2.6,0A3.38,3.38,0,0,1,84.4.91a3.36,3.36,0,0,1,.82,1.15,4,4,0,0,1,.31,1.64V10a.39.39,0,0,1-.16.33.64.64,0,0,1-.73,0,.39.39,0,0,1-.16-.33V3.72a3,3,0,0,0-.21-1.2,2.4,2.4,0,0,0-.57-.82,2.22,2.22,0,0,0-.81-.48,2.89,2.89,0,0,0-1.87,0,2.27,2.27,0,0,0-.81.48,2.31,2.31,0,0,0-.57.82,3,3,0,0,0-.21,1.18V10A.39.39,0,0,1,79.26,10.29Z"/><path class="cls-1" d="M1.15,23.69a1.58,1.58,0,0,0,.33.57,1.63,1.63,0,0,0,.58.39,2.18,2.18,0,0,0,.84.15H5.47a2.18,2.18,0,0,0,.84-.15,1.59,1.59,0,0,0,.58-.4,1.65,1.65,0,0,0,.33-.57A2,2,0,0,0,7.34,23a2,2,0,0,0-.11-.65,1.65,1.65,0,0,0-.33-.57,1.58,1.58,0,0,0-.58-.4,2.18,2.18,0,0,0-.84-.15H3.17A3.12,3.12,0,0,1,1.89,21,2.72,2.72,0,0,1,1,20.37a2.63,2.63,0,0,1-.54-.9,3,3,0,0,1,0-2.05,2.62,2.62,0,0,1,1.45-1.55,3.12,3.12,0,0,1,1.28-.24h2a3.12,3.12,0,0,1,1.28.24,2.63,2.63,0,0,1,1.45,1.55,3.05,3.05,0,0,1,.18,1,.41.41,0,0,1-.15.34.58.58,0,0,1-.37.12.56.56,0,0,1-.37-.12.42.42,0,0,1-.15-.34A2,2,0,0,0,7,17.79a1.57,1.57,0,0,0-.33-.57,1.63,1.63,0,0,0-.58-.39,2.18,2.18,0,0,0-.84-.15h-2a2.18,2.18,0,0,0-.84.15,1.63,1.63,0,0,0-.58.39,1.57,1.57,0,0,0-.33.57,2,2,0,0,0,0,1.31,1.57,1.57,0,0,0,.33.57,1.63,1.63,0,0,0,.58.39,2.17,2.17,0,0,0,.84.15H5.47a3.15,3.15,0,0,1,1.29.25,2.67,2.67,0,0,1,.91.64,2.62,2.62,0,0,1,.53.9,3.1,3.1,0,0,1,.17,1,3.13,3.13,0,0,1-.17,1,2.6,2.6,0,0,1-.53.9,2.67,2.67,0,0,1-.91.64,3.15,3.15,0,0,1-1.29.24H2.91a3.12,3.12,0,0,1-1.28-.24A2.64,2.64,0,0,1,.18,24,3,3,0,0,1,0,23a.43.43,0,0,1,.15-.35.57.57,0,0,1,.37-.13.54.54,0,0,1,.37.13A.44.44,0,0,1,1,23,2,2,0,0,0,1.15,23.69Z"/><path class="cls-1" d="M19,15.7a.64.64,0,0,1,.73,0,.39.39,0,0,1,.16.33v6.23a3.94,3.94,0,0,1-.32,1.64,3.48,3.48,0,0,1-.82,1.15,3.3,3.3,0,0,1-1.15.68,3.86,3.86,0,0,1-2.6,0,3.31,3.31,0,0,1-2-1.83,4,4,0,0,1-.31-1.64V16a.39.39,0,0,1,.16-.33.64.64,0,0,1,.73,0,.39.39,0,0,1,.16.33v6.21A3.1,3.1,0,0,0,14,23.46a2.25,2.25,0,0,0,1.37,1.3,2.91,2.91,0,0,0,1.87,0,2.28,2.28,0,0,0,.81-.48,2.3,2.3,0,0,0,.57-.82,3,3,0,0,0,.21-1.19V16A.39.39,0,0,1,19,15.7Z"/><path class="cls-1" d="M28.11,15.58a4,4,0,0,1,1.64.31,3.31,3.31,0,0,1,1.83,2,3.91,3.91,0,0,1,.23,1.3,4,4,0,0,1-.35,1.62,3.05,3.05,0,0,1-1.09,1.3.19.19,0,0,0-.09.12.1.1,0,0,0,.05.11,3.42,3.42,0,0,1,1.07,1.2,3.83,3.83,0,0,1,.41,1.86.42.42,0,0,1-.16.36.64.64,0,0,1-.73,0,.39.39,0,0,1-.16-.33,3.1,3.1,0,0,0-.21-1.21,2.25,2.25,0,0,0-1.37-1.3,2.85,2.85,0,0,0-.93-.15H26.08a.4.4,0,0,0-.25.08.27.27,0,0,0-.11.23V25.4a.39.39,0,0,1-.16.33.64.64,0,0,1-.73,0,.39.39,0,0,1-.16-.33V16a.38.38,0,0,1,.15-.33.63.63,0,0,1,.34-.12Zm0,6.1a3,3,0,0,0,1.19-.22,2.38,2.38,0,0,0,.82-.57,2.29,2.29,0,0,0,.48-.8,2.84,2.84,0,0,0,.15-.93,2.89,2.89,0,0,0-.15-.93,2.28,2.28,0,0,0-.48-.81,2.38,2.38,0,0,0-.82-.57,3,3,0,0,0-1.19-.22h-2a.4.4,0,0,0-.26.09.29.29,0,0,0-.11.23v4.42a.28.28,0,0,0,.11.23.38.38,0,0,0,.25.09Z"/><path class="cls-1" d="M40.28,20.28a.64.64,0,0,1,0,.73.39.39,0,0,1-.33.16H37.86a.44.44,0,0,0-.32.13.43.43,0,0,0-.13.32V25.4a.39.39,0,0,1-.16.33.64.64,0,0,1-.73,0,.39.39,0,0,1-.16-.33V16.12a.53.53,0,0,1,.53-.53h4.47a.39.39,0,0,1,.33.16.61.61,0,0,1,.12.37.61.61,0,0,1-.12.37.39.39,0,0,1-.33.15H37.86a.46.46,0,0,0-.45.45v2.58a.46.46,0,0,0,.45.45h2.09A.39.39,0,0,1,40.28,20.28Z"/><path class="cls-1" d="M53.22,17.69a3.33,3.33,0,0,1,1.86-1.94,3.72,3.72,0,0,1,1.47-.28l.37,0,.42.06.41.1a2.46,2.46,0,0,1,.35.14.43.43,0,0,1,.22.25.56.56,0,0,1,0,.32.58.58,0,0,1-.15.27.42.42,0,0,1-.31.12,1.77,1.77,0,0,1-.55-.11,2.42,2.42,0,0,0-.77-.11,2.64,2.64,0,0,0-1.06.2,2.3,2.3,0,0,0-1.29,1.38A3.12,3.12,0,0,0,54,19.16v3.1a3.12,3.12,0,0,0,.17,1.06A2.31,2.31,0,0,0,55.5,24.7a2.64,2.64,0,0,0,1.06.2,2.42,2.42,0,0,0,.77-.11,1.76,1.76,0,0,1,.55-.11.42.42,0,0,1,.31.12.58.58,0,0,1,.15.27.56.56,0,0,1,0,.32.43.43,0,0,1-.22.25,1.78,1.78,0,0,1-.35.15l-.41.1-.42.06-.37,0a3.71,3.71,0,0,1-1.47-.28A3.35,3.35,0,0,1,54,24.91a3.48,3.48,0,0,1-.73-1.17A4.11,4.11,0,0,1,53,22.26v-3.1A4.12,4.12,0,0,1,53.22,17.69Z"/><path class="cls-1" d="M62.72,15.7a.64.64,0,0,1,.73,0,.39.39,0,0,1,.16.33V22.3a3,3,0,0,0,.21,1.19,2.24,2.24,0,0,0,1.38,1.3,2.91,2.91,0,0,0,.93.15,2.7,2.7,0,0,0,1.12-.23.48.48,0,0,1,.57.1.63.63,0,0,1,.14.37.47.47,0,0,1-.06.28.5.5,0,0,1-.21.19,3.15,3.15,0,0,1-.77.26,4.08,4.08,0,0,1-.79.08,3.91,3.91,0,0,1-1.3-.23,3.3,3.3,0,0,1-1.15-.68,3.49,3.49,0,0,1-.82-1.15,3.93,3.93,0,0,1-.32-1.64V16A.39.39,0,0,1,62.72,15.7Z"/><path class="cls-1" d="M77.95,15.7a.64.64,0,0,1,.73,0,.39.39,0,0,1,.16.33v6.23a3.94,3.94,0,0,1-.32,1.64,3.48,3.48,0,0,1-.82,1.15,3.3,3.3,0,0,1-1.15.68,3.86,3.86,0,0,1-2.6,0,3.31,3.31,0,0,1-2-1.83,4,4,0,0,1-.31-1.64V16a.39.39,0,0,1,.16-.33.64.64,0,0,1,.73,0,.39.39,0,0,1,.16.33v6.21a3.1,3.1,0,0,0,.21,1.21,2.25,2.25,0,0,0,1.37,1.3,2.91,2.91,0,0,0,1.87,0,2.28,2.28,0,0,0,.81-.48,2.3,2.3,0,0,0,.57-.82,3,3,0,0,0,.21-1.19V16A.39.39,0,0,1,77.95,15.7Z"/><path class="cls-1" d="M83.73,15.74a.51.51,0,0,1,.37-.15h2.15a3.58,3.58,0,0,1,1.46.28,3,3,0,0,1,1,.73,3.05,3.05,0,0,1,.61,1,3.49,3.49,0,0,1,.2,1.15,3.33,3.33,0,0,1-.46,1.73.13.13,0,0,0,0,.09.2.2,0,0,0,.06.14,3.36,3.36,0,0,1,.74,1,2.74,2.74,0,0,1,.26,1.18,3,3,0,0,1-.18,1A2.63,2.63,0,0,1,88.5,25.5a3.11,3.11,0,0,1-1.28.25H84.1a.53.53,0,0,1-.53-.53v-9.1A.51.51,0,0,1,83.73,15.74ZM88,20.2a.11.11,0,0,0,.08,0,2.19,2.19,0,0,0,.46-1.39,2.47,2.47,0,0,0-.13-.79,1.9,1.9,0,0,0-.41-.69,2,2,0,0,0-.7-.48,2.56,2.56,0,0,0-1-.18H84.94a.3.3,0,0,0-.22.09.31.31,0,0,0-.09.23V19.8a.31.31,0,0,0,.09.23.3.3,0,0,0,.22.09h2.28A3.36,3.36,0,0,1,88,20.2Zm.1,4.35a1.63,1.63,0,0,0,.58-.39,1.59,1.59,0,0,0,.33-.56,2,2,0,0,0,.11-.66,2,2,0,0,0-.11-.65,1.59,1.59,0,0,0-.33-.56,1.63,1.63,0,0,0-.58-.39,2.54,2.54,0,0,0-1-.15H84.94a.31.31,0,0,0-.31.31v2.9a.31.31,0,0,0,.31.31h2.28A2.14,2.14,0,0,0,88,24.54Z"/></g></g></svg>