<svg xmlns="http://www.w3.org/2000/svg" viewBox="0 0 91.17 40.54"><defs><style>.cls-1{fill:#fff;}</style></defs><title>Asset 1</title><g id="Layer_2" data-name="Layer 2"><g id="Layer_1-2" data-name="Layer 1"><circle class="cls-1" cx="26.05" cy="18" r="3.21"/><rect class="cls-1" x="30.72" y="17.25" width="3.01" height="1.5"/><rect class="cls-1" x="30.65" y="19.59" width="1.5" height="3.01" transform="translate(-2.56 37.74) rotate(-60)"/><rect class="cls-1" x="28.39" y="21.85" width="1.5" height="3.01" transform="translate(-7.77 17.7) rotate(-30)"/><rect class="cls-1" x="25.3" y="22.67" width="1.5" height="3.01"/><rect class="cls-1" x="21.46" y="22.6" width="3.01" height="1.5" transform="translate(-8.74 31.56) rotate(-60)"/><rect class="cls-1" x="19.2" y="20.34" width="3.01" height="1.5" transform="translate(-7.77 13.18) rotate(-30)"/><rect class="cls-1" x="18.37" y="17.25" width="3.01" height="1.5"/><rect class="cls-1" x="19.95" y="13.41" width="1.5" height="3.01" transform="translate(-2.56 25.39) rotate(-60)"/><rect class="cls-1" x="22.21" y="11.15" width="1.5" height="3.01" transform="translate(-3.25 13.18) rotate(-30)"/><rect class="cls-1" x="25.3" y="10.32" width="1.5" height="3.01"/><rect class="cls-1" x="27.64" y="11.9" width="3.01" height="1.5" transform="translate(3.61 31.56) rotate(-60)"/><rect class="cls-1" x="29.9" y="14.16" width="3.01" height="1.5" transform="translate(-3.25 17.7) rotate(-30)"/><path class="cls-1" d="M85.49,9l-.08.09Q83.93,9,82.41,9A29.81,29.81,0,0,0,55.24,26.52c-2.37,4.51-5.74,2.09-5.74,2.09h0a16,16,0,0,0-21.8,5.93h0a3.06,3.06,0,0,1-4.14,1.08h0a8,8,0,0,0-9.9,1.49h0A18.16,18.16,0,0,0,24.3,40.54H72.89A18.34,18.34,0,0,0,91.17,22.26h0A18.24,18.24,0,0,0,85.49,9ZM32.23,33.28c6.68-6.76,15.36-2.88,15.36-2.88L49,33.28C41,29.27,32.23,33.28,32.23,33.28Zm26.88-5.85C66.37,12.57,84.28,12,84.28,12l1.13,2.5C67.63,15.87,59.11,27.44,59.11,27.44Zm6.26-1.54c8.14-7.89,20.76-9.2,20.76-9.2l1,2.56C77.58,19.84,65.37,25.89,65.37,25.89Z"/><path class="cls-1" d="M73.64,4H24.3A18.34,18.34,0,0,0,6,22.26H6a18.12,18.12,0,0,0,1.15,6.35h0S3.24,33.28,0,34H10.19l0-.21.1.12-.06.09a8.11,8.11,0,0,1,4.69-3.32l.1,0a12.57,12.57,0,0,1-3.46-8.42c0-9.13,7.4-15.53,16.53-15.53h47.2c3.11,0,5.86-3.51,5.86-6.73A9,9,0,0,1,73.64,4Z"/></g></g></svg>