<svg xmlns="http://www.w3.org/2000/svg" viewBox="0 0 31.8 31.8"><defs><style>.cls-1{fill:#fff;}.cls-2{fill:#2ac6ff;}</style></defs><title>Asset 15</title><g id="Layer_2" data-name="Layer 2"><g id="Layer_1-2" data-name="Layer 1"><circle class="cls-1" cx="15.9" cy="15.9" r="15.9"/><polygon class="cls-2" points="24.38 9.5 24.38 9.5 24.38 9.5 24.38 9.5"/><path class="cls-2" d="M23.74,11.16a2.18,2.18,0,0,1-.63.08v-.07a5.19,5.19,0,0,0,1.27-1.45c0-.16,0-.22,0-.23l-1.06.45-.89.4h0a3.54,3.54,0,0,0-2.58-1.06,3.15,3.15,0,0,0-3.34,2.92,4.34,4.34,0,0,0,.14,1.1c0,.08,0-.08,0,0a10.43,10.43,0,0,1-4.07-1.21c-2.68-1.36-2.84-2.3-2.84-2.3a3.65,3.65,0,0,0-.21,3.08,3.84,3.84,0,0,0,1.21,1.41h0a2.84,2.84,0,0,1-.86-.14,1.9,1.9,0,0,1-.61-.3c-.26.64.26,1.77,1.17,2.59a4.8,4.8,0,0,0,1.49.77l-1.51,0c-.08,1.46,3.07,2.33,3.07,2.33h0a5.16,5.16,0,0,1-3.15,1.14,6,6,0,0,1-1.72-.25,8.2,8.2,0,0,0,5.6,2c5.63-.3,8.81-5.14,9-9.9h0a4,4,0,0,0,.83-.7,5.83,5.83,0,0,0,.92-1.22S24.09,11.06,23.74,11.16Z"/><path class="cls-2" d="M24.38,9.5c0,.09,0,0,0,0Z"/></g></g></svg>