<svg xmlns="http://www.w3.org/2000/svg" viewBox="0 0 31.8 31.8"><defs><style>.cls-1{fill:#fff;}.cls-2{fill:#1338d1;}</style></defs><title>Asset 16</title><g id="Layer_2" data-name="Layer 2"><g id="Layer_1-2" data-name="Layer 1"><circle class="cls-1" cx="15.9" cy="15.9" r="15.9"/><path class="cls-2" d="M19.61,24.94H12.18a6,6,0,0,1-6-6V12.42a6,6,0,0,1,6-6h7.43a6,6,0,0,1,6,6V19A6,6,0,0,1,19.61,24.94ZM12.18,7.77a4.65,4.65,0,0,0-4.65,4.65V19a4.65,4.65,0,0,0,4.65,4.65h7.43A4.65,4.65,0,0,0,24.26,19V12.42a4.65,4.65,0,0,0-4.65-4.65Z"/><path class="cls-2" d="M15.9,21a5.32,5.32,0,1,1,5.32-5.32A5.33,5.33,0,0,1,15.9,21Zm0-9.31a4,4,0,1,0,4,4A4,4,0,0,0,15.9,11.7Z"/><circle class="cls-2" cx="21.14" cy="10.54" r="1.1"/></g></g></svg>