<svg xmlns="http://www.w3.org/2000/svg" viewBox="0 0 79.88 28.09"><defs><style>.cls-1{opacity:0.3;}.cls-2{fill:#ff5059;}</style></defs><title>Asset 29</title><g id="Layer_2" data-name="Layer 2"><g id="Layer_1-2" data-name="Layer 1"><g class="cls-1"><path class="cls-2" d="M71.25,10.82c-5.09,0-7.88-2.31-10.13-4.17C59.34,5.17,57.93,4,55.59,4s-3.74,1.17-5.53,2.65c-2.24,1.86-5,4.17-10.13,4.17S32.06,8.5,29.81,6.65C28,5.17,26.62,4,24.29,4s-3.74,1.17-5.53,2.65c-2.24,1.86-5,4.17-10.13,4.17A13.53,13.53,0,0,1,0,7.84L2.42,4.66A9.52,9.52,0,0,0,8.63,6.82c3.65,0,5.47-1.51,7.57-3.25S20.51,0,24.29,0s6.06,1.89,8.08,3.57,3.92,3.25,7.57,3.25,5.47-1.51,7.57-3.25S51.82,0,55.59,0s6.06,1.89,8.08,3.57,3.92,3.25,7.57,3.25a9.52,9.52,0,0,0,6.22-2.16l2.42,3.19A13.53,13.53,0,0,1,71.25,10.82Z"/><path class="cls-2" d="M71.25,19.45c-5.09,0-7.88-2.31-10.13-4.17-1.78-1.48-3.19-2.65-5.53-2.65s-3.74,1.17-5.53,2.65c-2.24,1.86-5,4.17-10.13,4.17s-7.88-2.31-10.13-4.17c-1.78-1.48-3.19-2.65-5.53-2.65s-3.74,1.17-5.53,2.65c-2.24,1.86-5,4.17-10.13,4.17a13.53,13.53,0,0,1-8.63-3l2.42-3.19a9.52,9.52,0,0,0,6.22,2.16c3.65,0,5.47-1.51,7.57-3.25s4.3-3.57,8.08-3.57,6.06,1.89,8.08,3.57,3.92,3.25,7.57,3.25,5.47-1.51,7.57-3.25,4.3-3.57,8.08-3.57,6.06,1.89,8.08,3.57,3.92,3.25,7.57,3.25a9.52,9.52,0,0,0,6.22-2.16l2.42,3.19A13.53,13.53,0,0,1,71.25,19.45Z"/><path class="cls-2" d="M71.25,28.09c-5.09,0-7.88-2.31-10.13-4.17-1.78-1.48-3.19-2.65-5.53-2.65s-3.74,1.17-5.53,2.65c-2.24,1.86-5,4.17-10.13,4.17s-7.88-2.31-10.13-4.17c-1.78-1.48-3.19-2.65-5.53-2.65s-3.74,1.17-5.53,2.65c-2.24,1.86-5,4.17-10.13,4.17a13.53,13.53,0,0,1-8.63-3l2.42-3.19a9.52,9.52,0,0,0,6.22,2.16c3.65,0,5.47-1.51,7.57-3.25s4.3-3.57,8.08-3.57,6.06,1.89,8.08,3.57,3.92,3.25,7.57,3.25,5.47-1.51,7.57-3.25,4.3-3.57,8.08-3.57,6.06,1.89,8.08,3.57,3.92,3.25,7.57,3.25a9.52,9.52,0,0,0,6.22-2.16l2.42,3.19A13.53,13.53,0,0,1,71.25,28.09Z"/></g></g></g></svg>