<svg xmlns="http://www.w3.org/2000/svg" viewBox="0 0 79.28 27.09"><defs><style>.cls-1{fill:#1338d1;}</style></defs><title>Asset 15</title><g id="Layer_2" data-name="Layer 2"><g id="Layer_1-2" data-name="Layer 1"><path class="cls-1" d="M70.95,9.82c-4.91,0-7.51-2.16-9.81-4.06C59.28,4.22,57.81,3,55.29,3s-4,1.22-5.85,2.76c-2.29,1.9-4.9,4.06-9.81,4.06s-7.51-2.16-9.81-4.06C28,4.22,26.5,3,24,3s-4,1.22-5.85,2.76c-2.3,1.9-4.9,4.06-9.81,4.06A12.89,12.89,0,0,1,0,6.95L1.81,4.56A10,10,0,0,0,8.33,6.82c3.83,0,5.8-1.64,7.89-3.37S20.39,0,24,0s5.71,1.75,7.76,3.45,4.06,3.37,7.89,3.37,5.8-1.64,7.89-3.37S51.7,0,55.29,0,61,1.75,63.05,3.45s4.06,3.37,7.89,3.37a10,10,0,0,0,6.52-2.26l1.81,2.39A12.89,12.89,0,0,1,70.95,9.82Z"/><path class="cls-1" d="M70.95,18.45c-4.91,0-7.51-2.16-9.81-4.06-1.86-1.54-3.33-2.76-5.85-2.76s-4,1.22-5.85,2.76c-2.29,1.9-4.9,4.06-9.81,4.06s-7.51-2.16-9.81-4.06C28,12.85,26.5,11.63,24,11.63s-4,1.22-5.85,2.76c-2.3,1.9-4.9,4.06-9.81,4.06A12.89,12.89,0,0,1,0,15.58l1.81-2.39a10,10,0,0,0,6.52,2.26c3.83,0,5.8-1.64,7.89-3.37S20.39,8.63,24,8.63s5.71,1.75,7.76,3.45,4.06,3.37,7.89,3.37,5.8-1.64,7.89-3.37,4.16-3.45,7.76-3.45,5.71,1.75,7.76,3.45,4.06,3.37,7.89,3.37a10,10,0,0,0,6.52-2.26l1.81,2.39A12.89,12.89,0,0,1,70.95,18.45Z"/><path class="cls-1" d="M70.95,27.09c-4.91,0-7.51-2.16-9.81-4.06-1.86-1.54-3.33-2.76-5.85-2.76s-4,1.22-5.85,2.76c-2.29,1.9-4.9,4.06-9.81,4.06S32.13,24.93,29.83,23C28,21.48,26.5,20.27,24,20.27S20,21.48,18.14,23c-2.3,1.9-4.9,4.06-9.81,4.06A12.89,12.89,0,0,1,0,24.21l1.81-2.39a10,10,0,0,0,6.52,2.26c3.83,0,5.8-1.64,7.89-3.37s4.16-3.45,7.76-3.45S29.7,19,31.75,20.72s4.06,3.37,7.89,3.37,5.8-1.64,7.89-3.37,4.16-3.45,7.76-3.45S61,19,63.05,20.72s4.06,3.37,7.89,3.37a10,10,0,0,0,6.52-2.26l1.81,2.39A12.88,12.88,0,0,1,70.95,27.09Z"/></g></g></svg>