<svg xmlns="http://www.w3.org/2000/svg" viewBox="0 0 55.31 37.76"><defs><style>.cls-1{fill:#adadad;}</style></defs><title>Asset 5</title><g id="Layer_2" data-name="Layer 2"><g id="Layer_1-2" data-name="Layer 1"><path class="cls-1" d="M37.12,37.24h-21A16.13,16.13,0,0,1,15.47,5h.24l.06,2a5.82,5.82,0,0,0-3.69,10A19.19,19.19,0,0,1,31.26,0a11.45,11.45,0,0,1,7.42,2.73l.76.65-.91,1.07-.43.06a9.45,9.45,0,0,0-7.23,14.35l-1.7,1A11.45,11.45,0,0,1,35.49,3a9.46,9.46,0,0,0-4.24-1A17.21,17.21,0,0,0,14,18.85l0,1.61-1.42-.75A7.81,7.81,0,0,1,9.55,8.58a14.14,14.14,0,0,0,6.58,26.66h21Z"/><path class="cls-1" d="M55.31,37.76H39.19a12,12,0,1,1,0-24v2a4,4,0,0,0-1.93,7.4h9.48a7.4,7.4,0,0,1,5,2.21c2.39,2.33,3.61,6.16,3.61,11.37ZM33.7,17.42a10,10,0,0,0,5.49,18.34H53.3c-.14-4.09-1.17-7.17-3-8.94a5.49,5.49,0,0,0-3.54-1.64h-10l-.21-.1a6,6,0,0,1-2.87-7.66Z"/></g></g></svg>