<svg xmlns="http://www.w3.org/2000/svg" viewBox="0 0 58.33 36.37"><defs><style>.cls-1{fill:#fff;}</style></defs><title>Asset 5</title><g id="Layer_2" data-name="Layer 2"><g id="Layer_1-2" data-name="Layer 1"><path class="cls-1" d="M7.64,21.78A12.16,12.16,0,1,1,26.26,7.42L23.5,8.59a9.16,9.16,0,1,0-14,10.81Z"/><path class="cls-1" d="M45.49,36.37H5.74a5.74,5.74,0,0,1-.2-11.47,10,10,0,0,1,9.86-8.48h.18A14.55,14.55,0,0,1,41,11.5a12.65,12.65,0,0,1,4.46-.81,12.84,12.84,0,0,1,0,25.68ZM5.74,27.9a2.74,2.74,0,0,0,0,5.47H45.49a9.84,9.84,0,0,0,0-19.68,9.73,9.73,0,0,0-4.31,1L40,15.28l-.72-1.11a11.55,11.55,0,0,0-21,4.14l-.27,1.43-1.44-.23A6.92,6.92,0,0,0,8.43,26.4v.15l0,2-2-.58A2.73,2.73,0,0,0,5.74,27.9Z"/></g></g></svg>