<svg xmlns="http://www.w3.org/2000/svg" viewBox="0 0 56.31 38.24"><defs><style>.cls-1{fill:#fff;}</style></defs><title>Asset 8</title><g id="Layer_2" data-name="Layer 2"><g id="Layer_1-2" data-name="Layer 1"><path class="cls-1" d="M37.62,38.24h-21A16.63,16.63,0,0,1,16,5h.26a1.5,1.5,0,0,1,1.37.91A19.75,19.75,0,0,1,31.76,0,12,12,0,0,1,39.5,2.85a1.5,1.5,0,0,1,.19,2.09,1.57,1.57,0,0,1-1.05.57A8.95,8.95,0,0,0,31.79,19.1a1.5,1.5,0,0,1-2.56,1.57,11.94,11.94,0,0,1,5.41-17.2A9,9,0,0,0,31.76,3,16.71,16.71,0,0,0,15,19.37a1.5,1.5,0,0,1-2.2,1.29A8.32,8.32,0,0,1,8.83,10.4a13.65,13.65,0,0,0,7.79,24.84h21a1.5,1.5,0,0,1,0,3ZM15.76,8a5.32,5.32,0,0,0-3.51,8.26A19.69,19.69,0,0,1,15.76,8Z"/><path class="cls-1" d="M54.81,38.24H39.69a12.49,12.49,0,1,1,0-25,1.5,1.5,0,0,1,0,3,3.45,3.45,0,0,0-1.79,6.4h9.35A7.83,7.83,0,0,1,52.55,25c2.49,2.43,3.76,6.38,3.76,11.73A1.5,1.5,0,0,1,54.81,38.24ZM33.31,18.72a9.49,9.49,0,0,0,6.38,16.52H53.27c-.5-9.47-5.77-9.58-6-9.58H37.52a1.49,1.49,0,0,1-.66-.15,6.41,6.41,0,0,1-3.62-5.8A6.49,6.49,0,0,1,33.31,18.72Z"/></g></g></svg>