<svg xmlns="http://www.w3.org/2000/svg" viewBox="0 0 44.61 35.18"><defs><style>.cls-1{fill:#fff;}</style></defs><title>Asset 7</title><g id="Layer_2" data-name="Layer 2"><g id="Layer_1-2" data-name="Layer 1"><path class="cls-1" d="M22.33,19.74H4.08a4.08,4.08,0,0,1-.62-8.12,6.68,6.68,0,0,1,6.18-5.2A9.45,9.45,0,0,1,25.79,3.31a8.29,8.29,0,0,1,2.52-.39A8.41,8.41,0,0,1,36.55,13l-2.94-.6a5.42,5.42,0,0,0-5.3-6.5,5.35,5.35,0,0,0-2.37.55l-1.19.58L24,5.95A6.45,6.45,0,0,0,12.26,8.26L12,9.7l-1.44-.23A3.77,3.77,0,0,0,10,9.42a3.67,3.67,0,0,0-3.66,3.66v.09l0,2-2-.58a1.08,1.08,0,1,0-.31,2.12H22.33Z"/><path class="cls-1" d="M38.35,24.37H21.68a3.28,3.28,0,0,1-.8-6.46,5.07,5.07,0,0,1,4.3-3.62,7,7,0,0,1,11.6-2.23,6.15,6.15,0,0,1,1.58-.21,6.26,6.26,0,1,1,0,12.51ZM21.72,20.83c-.21,0-.33.12-.33.27a.28.28,0,0,0,.28.28H38.35a3.26,3.26,0,1,0,0-6.51,3.22,3.22,0,0,0-1.43.33l-1.19.58L35,14.66a4,4,0,0,0-7.24,1.42l-.27,1.43-1.44-.22a2.17,2.17,0,0,0-.33,0,2.06,2.06,0,0,0-2.06,2.05l0,2-2-.53Z"/><rect class="cls-1" x="6.62" y="28.33" width="10.7" height="3" transform="translate(-19.75 24.61) rotate(-58.78)"/><rect class="cls-1" x="15" y="28.33" width="10.7" height="3" transform="translate(-15.71 31.78) rotate(-58.78)"/><rect class="cls-1" x="23.38" y="28.33" width="10.7" height="3" transform="translate(-11.67 38.94) rotate(-58.78)"/></g></g></svg>