<svg xmlns="http://www.w3.org/2000/svg" viewBox="0 0 57.33 35.37"><defs><style>.cls-1{fill:#adadad;}</style></defs><title>Asset 4</title><g id="Layer_2" data-name="Layer 2"><g id="Layer_1-2" data-name="Layer 1"><path class="cls-1" d="M7.44,20.88A11.66,11.66,0,1,1,25.3,7.12l-1.84.78A9.66,9.66,0,1,0,8.67,19.3Z"/><path class="cls-1" d="M45,35.37H5.24A5.24,5.24,0,1,1,5.48,24.9a9.49,9.49,0,0,1,9.42-8.48l.56,0A14.05,14.05,0,0,1,40.37,11.6,12.16,12.16,0,0,1,45,10.69a12.34,12.34,0,0,1,0,24.68ZM5.24,26.9a3.24,3.24,0,1,0,0,6.47H45a10.34,10.34,0,0,0,0-20.68,10.23,10.23,0,0,0-4.53,1.06l-.8.39-.48-.74a12.05,12.05,0,0,0-22,4.32l-.18,1-1-.15A7.42,7.42,0,0,0,7.43,25.9l0,1.52L6.15,27A3.25,3.25,0,0,0,5.24,26.9Z"/></g></g></svg>