<svg xmlns="http://www.w3.org/2000/svg" viewBox="0 0 41.41 39.35"><defs><style>.cls-1{fill:#adadad;}</style></defs><title>Asset 6</title><g id="Layer_2" data-name="Layer 2"><g id="Layer_1-2" data-name="Layer 1"><path class="cls-1" d="M12.41,7.52a3.76,3.76,0,1,1,3.75-4.14h0A3.76,3.76,0,0,1,12.79,7.5Zm0-5.52h-.18a1.76,1.76,0,1,0,1.93,1.57h0A1.76,1.76,0,0,0,12.42,2Z"/><path class="cls-1" d="M12.27,36.67a1,1,0,0,1-.37-.07l-3-1.23A1,1,0,0,1,8.31,34l3.17-7-.78-5.81L9.33,10.41l-2.64.27L1.8,17.11A1,1,0,1,1,.2,15.91L5.36,9.12a1,1,0,0,1,.7-.39l4-.41a1,1,0,0,1,1.09.87L13.5,27.09a1,1,0,0,1-.08.55l-2.85,6.26,1.18.48,3.08-6.8-.37-5.82a1,1,0,0,1,1.55-.9L22.34,25a1,1,0,0,1,.45.74l.78,7.76,1.19-.12-.87-8.69-6.21-4.3a1,1,0,0,1-.43-.72l-1.1-11a1,1,0,0,1,.9-1.1l5.13-.5,5-1.32a1,1,0,1,1,.51,1.93L22.6,9.07l-.16,0-4.2.41,1,9.53,6.21,4.3a1,1,0,0,1,.43.72l1,10.14a1,1,0,0,1-.9,1.1l-3.18.32a1,1,0,0,1-1.1-.89l-.83-8.28-4.26-2.8.26,4.06a1,1,0,0,1-.09.48l-3.58,7.9A1,1,0,0,1,12.27,36.67Z"/><path class="cls-1" d="M9.72,39.35a70.81,70.81,0,0,1-8.63-.47,1,1,0,0,1,.26-2c.22,0,22.06,2.79,38.57-6.27a1,1,0,0,1,1,1.75C30.27,38.21,17.83,39.35,9.72,39.35Z"/></g></g></svg>