<svg xmlns="http://www.w3.org/2000/svg" viewBox="0 0 42.18 40.35"><defs><style>.cls-1{fill:#fff;}</style></defs><title>Asset 9</title><g id="Layer_2" data-name="Layer 2"><g id="Layer_1-2" data-name="Layer 1"><path class="cls-1" d="M12.69,8.52a4.26,4.26,0,1,1,.43,0Zm0-5.52h-.13a1.26,1.26,0,1,0,1.38,1.13h0A1.26,1.26,0,0,0,12.69,3Z"/><path class="cls-1" d="M25.23,34.81a1.5,1.5,0,0,1-1.49-1.35L22.9,25l-5.35-3.7a1.5,1.5,0,0,1-.64-1.08l-1-9.87a1.5,1.5,0,0,1,1.34-1.64l4.56-.45,4.44-1.18A1.5,1.5,0,1,1,27,10l-4.56,1.21-.24,0L19,11.57l.77,7.69L25.17,23A1.5,1.5,0,0,1,25.81,24l.92,9.12a1.5,1.5,0,0,1-1.34,1.64Z"/><path class="cls-1" d="M13.3,36.34a1.5,1.5,0,0,1-1.4-2l2.45-6.53-3.14-5.57a1.49,1.49,0,0,1-.18-.55L9.87,12.49l-1.53.15L4.1,18.23a1.5,1.5,0,0,1-2.39-1.81l4.63-6.1a1.5,1.5,0,0,1,1-.58L11,9.36a1.49,1.49,0,0,1,1.64,1.3L14,21l3.34,5.92a1.5,1.5,0,0,1,.1,1.26l-2.7,7.19A1.5,1.5,0,0,1,13.3,36.34Z"/><path class="cls-1" d="M10,40.35a71.43,71.43,0,0,1-8.68-.47,1.5,1.5,0,0,1,.39-3c.22,0,21.9,2.76,38.26-6.22a1.5,1.5,0,1,1,1.44,2.63C30.69,39.2,18.16,40.35,10,40.35Z"/></g></g></svg>