<svg xmlns="http://www.w3.org/2000/svg" viewBox="0 0 37.66 37.08"><defs><style>.cls-1{fill:#fff;}</style></defs><title>Asset 6</title><g id="Layer_2" data-name="Layer 2"><g id="Layer_1-2" data-name="Layer 1"><path class="cls-1" d="M18.83,30.41A11.29,11.29,0,1,1,30.12,19.12,11.31,11.31,0,0,1,18.83,30.41Zm0-19.58a8.29,8.29,0,1,0,8.29,8.29A8.3,8.3,0,0,0,18.83,10.83Z"/><polygon class="cls-1" points="18.83 1 17.1 4 20.56 4 18.83 1"/><path class="cls-1" d="M21.43,4.5h-5.2L18.83,0ZM18,3.5h1.73L18.83,2Z"/><polygon class="cls-1" points="7.18 5.24 7.78 8.65 10.44 6.42 7.18 5.24"/><path class="cls-1" d="M7.44,9.59l-.9-5.12,4.88,1.78ZM7.82,6l.3,1.71L9.45,6.6Z"/><polygon class="cls-1" points="0.98 15.97 3.64 18.2 4.24 14.79 0.98 15.97"/><path class="cls-1" d="M4,19.14,0,15.8,4.88,14Zm-2-3L3.3,17.26l.3-1.71Z"/><polygon class="cls-1" points="3.14 28.18 6.6 28.18 4.87 25.18 3.14 28.18"/><path class="cls-1" d="M7.47,28.68H2.27l2.6-4.5ZM4,27.68H5.73l-.87-1.5Z"/><polygon class="cls-1" points="12.63 36.15 15.29 33.92 12.03 32.73 12.63 36.15"/><path class="cls-1" d="M12.29,37.08,11.39,32l4.88,1.78Zm.38-3.58.3,1.71,1.33-1.11Z"/><polygon class="cls-1" points="25.02 36.15 25.63 32.73 22.37 33.92 25.02 36.15"/><path class="cls-1" d="M25.37,37.08l-4-3.34L26.27,32Zm-2-3,1.33,1.11L25,33.5Z"/><polygon class="cls-1" points="34.52 28.18 32.79 25.18 31.06 28.18 34.52 28.18"/><path class="cls-1" d="M35.39,28.68h-5.2l2.6-4.5Zm-3.46-1h1.73l-.87-1.5Z"/><polygon class="cls-1" points="36.67 15.97 33.42 14.79 34.02 18.2 36.67 15.97"/><path class="cls-1" d="M33.68,19.14,32.77,14l4.88,1.78Zm.38-3.59.3,1.71,1.33-1.11Z"/><polygon class="cls-1" points="30.48 5.24 27.22 6.42 29.87 8.65 30.48 5.24"/><path class="cls-1" d="M30.22,9.59l-4-3.34,4.88-1.78Zm-2-3,1.33,1.11L29.83,6Z"/></g></g></svg>