<svg xmlns="http://www.w3.org/2000/svg" viewBox="0 0 54.2 28.76"><defs><style>.cls-1{fill:#1338d1;}.cls-2{fill:#ff5059;}</style></defs><title>Asset 8</title><g id="Layer_2" data-name="Layer 2"><g id="Layer_1-2" data-name="Layer 1"><path class="cls-1" d="M48.27,17.08a10,10,0,0,1-6.94-2.86c-1.23-1-2.12-1.75-3.64-1.75s-2.41.74-3.64,1.76a9.87,9.87,0,0,1-13.89,0c-1.23-1-2.12-1.75-3.64-1.75s-2.41.74-3.64,1.76a10,10,0,0,1-6.94,2.86A9.29,9.29,0,0,1,0,15l1.81-2.39a6.22,6.22,0,0,0,4.12,1.43c2.41,0,3.63-1,5-2.17s3-2.45,5.56-2.45,4.18,1.3,5.56,2.45,2.61,2.17,5,2.17,3.63-1,5-2.17,3-2.45,5.56-2.45,4.17,1.3,5.56,2.45,2.61,2.17,5,2.17a6.22,6.22,0,0,0,4.12-1.43L54.2,15A9.29,9.29,0,0,1,48.27,17.08Z"/><path class="cls-2" d="M7.72,1.16v.42c-.05.11-.11.11-.11.05a1.33,1.33,0,0,1,.05.53c-.05,0-.05-.16-.05-.48-.05,0,0,.11.16.37L7.88,2a1.2,1.2,0,0,1,.32.63l.42.58-.32.63q0,1.43,3,10.94H11a17.77,17.77,0,0,0,.9-5.6V9.14a.53.53,0,0,0-.05-.21.4.4,0,0,0,.05-.21V8a2.85,2.85,0,0,0-.05-.58.19.19,0,0,0,.05-.16,1.06,1.06,0,0,0-.11-.48,1.4,1.4,0,0,0,.05-.37l-.05-.16.05-.16c-.37-2.27-.53-3.54-.53-3.91V1.74l1.37.16.53-.11a24.59,24.59,0,0,1,.9,5.55l.11.53h.05l-.11-.21V9.88a13.65,13.65,0,0,1-2.06,7.61,7.4,7.4,0,0,1-1.27,1.16h-.58a2.18,2.18,0,0,0-.69-1.27l.11-.16c-.21-.42-.84-2.43-1.9-5.92-.69-2.33-1-3.54-1-3.65h.42a31,31,0,0,0-.37,3.75l.11.21c-.05.11-.11.16-.11.21v.11c0,.05.05.11.11.21a.58.58,0,0,1-.11.21l.11.58H7l-.11-.21v.32c0,.16.05.53.11,1.11H7l.58,3.43h.05l-.11-.21v.69c0,.16-.16.37-.48.53l-.16-.05-.11.05-.11-.05-.05.05-.37-.05a2.91,2.91,0,0,1-.48.05v-.21L5.4,19A6.59,6.59,0,0,1,4,15.54c0-.26-.11-1-.26-2.17.05-.05.11-.11.11-.05l-.11-.16.11-.21c0,.21-.05.26-.05.26V11.73a6.15,6.15,0,0,1,.16-2c0,.11-.05.11-.05,0a21.48,21.48,0,0,1,.48-3.17,2.93,2.93,0,0,1-.05-.48c.16,0,.26-.32.37-.9C5.5,2.64,6.19,1.32,6.72,1.32c0-.11.21-.16.53-.16Z"/><path class="cls-2" d="M20,.32l-.21.48c0-.05.21.11.69.42,0,.11.26.21.9.37v.48l-.05.21h1.27c2.75,0,4.49.32,5.18.9a1.27,1.27,0,0,1-.21.79c-.21,0-.21.16-.05.53a2.2,2.2,0,0,1-1.21.37A22.64,22.64,0,0,0,22,4.49l-.16.11a.89.89,0,0,0-.26-.11h-.74c.11,0,0,.69-.26,2a31.37,31.37,0,0,0-1.11,7.56h-.16a15.78,15.78,0,0,1,2.8-.69,10.61,10.61,0,0,1,2.17-.21l.05.05.05-.05c1.21,0,2,.21,2.22.58-.21.79-.42,1.27-.69,1.43,0-.05.11-.05.42-.05v.63a35.58,35.58,0,0,1-4.81.9q-1.67.24-4.76,2.54h-.42v-.53c0,.11-.05.11-.05.11,0-.42,0-.63.05-.63-.05-.79-.05-1.37-.05-1.85V14.74a39.2,39.2,0,0,1,.85-6.92,1.19,1.19,0,0,1-.05-.53c.16,0,.26-.21.26-.69.11,0,.16-.37.32-1.06a7.68,7.68,0,0,0,.32-1h.21c-.42,0-.69-.16-.74-.48a4,4,0,0,0,.21-1.53c.48,0,.74-.05.74-.11A3.85,3.85,0,0,1,19.19.32a1.52,1.52,0,0,0,.58-.21C19.77.26,19.82.32,20,.32Zm7.29,7.5A6.19,6.19,0,0,1,27,9.09v.05l.11.21v.26a2.3,2.3,0,0,1-2,.74v.11c.16-.05.21-.11.11-.11s-.63,0-1.48.05h-.05a3.56,3.56,0,0,0-.53.05h-.58v.11l.21-.11-.26-.05-.05.05H22l-1.22.11v-.11c.32,0,.48,0,.48.05-.58,0-1-.16-1.16-.48l.05-.48v-1c0-.21-.05-.32-.11-.32l.11.21V8q0-.4,3-.63c0-.05.21-.05.63-.05V7.19l-.21.11c.37,0,1.27-.05,2.75-.16A.87.87,0,0,1,27.27,7.82Z"/><path class="cls-2" d="M38.68,0a3,3,0,0,0,.84,1.85A13,13,0,0,0,37.2,5.76a27.18,27.18,0,0,1-1.58,3.06,31.79,31.79,0,0,0,3.7,5.28A13.66,13.66,0,0,0,43,16.8a1.22,1.22,0,0,1,.26.9c-.16,0-.26.05-.37.26a1.76,1.76,0,0,1-.58.42c0-.11.21,0,.58.26l-.58.26h-.16a7,7,0,0,1-4-2.06,16.22,16.22,0,0,1-2.75-3.22,11.27,11.27,0,0,1-1.48-2.27h.26a52.34,52.34,0,0,0-2.64,5.81,1,1,0,0,1-.58.26c-.69-.32-1.06-.58-1.06-.79.05.05.11.05.05.05h.16c0,.21-.21.32-.58.32l-.16-.32v-.9l-.05-.11.11-.37-.05-.11a22.08,22.08,0,0,1,2.06-4.65,13.77,13.77,0,0,0,1-1.8.18.18,0,0,1,.11.05,6.07,6.07,0,0,1-.85-1.32c-.16-.32-1-1.64-2.43-3.91a1.58,1.58,0,0,1-.48-1V2.27c1-.26,1.64-.53,1.85-.9A19.48,19.48,0,0,1,33.08,4.7L34,6.13a5.52,5.52,0,0,0,.69-1.59A.83.83,0,0,0,35,3.86C36.46,1.27,37.57,0,38.31,0Z"/><path class="cls-2" d="M51.2.53c.21,0,.42-.05.58-.05,1,0,1.48.21,1.48.53l.11.21v.42c-.05,0-.11-.05-.11-.21V2.48c-.11.11-.11.11-.11-.05.05,0,.11.11.11.32s-.11.37-.42.37c0-.26.11-.42.26-.42v.53a6.12,6.12,0,0,1-2.91.48h-.32a.48.48,0,0,0-.26.05l-.37-.05a9.8,9.8,0,0,0-1.16.05V5.18l.05.42V6.92c0,.21.05.32.11.32L48.14,7V7.4c0,.21.05.32.11.32s-.11-.16-.11-.05V15.8a.89.89,0,0,0,.11.26c-.05.11-.11.16-.11.21v.16c0,1.32-.21,2-.63,2-.48-.16-.79-.32-.85-.48h.05c.05-.05.05,0,.05.21h-.58a10.29,10.29,0,0,1-.32-1.74v-.69l-.05-.42c0-.11.05-.16.05-.26l-.05-.42c0-.11.05-.11.05-.11s-.05.21-.11.21l.11-.58a2.37,2.37,0,0,0-.05-.63,8.59,8.59,0,0,0,.05-1.11V12.1l-.11-1h.11c0,.32-.05.42-.11.42l.11-.63V8.3A12.47,12.47,0,0,1,45.92,7c0,.11-.05.21-.11.21l.11-.69V3.7c0-.21-.05-.32-.11-.32a1.35,1.35,0,0,1,.11.37H45.6l-.42.05c-.11,0-.16-.05-.26-.05l-.53.37c0-.26.05-.37.16-.37l-3,.26V3.91c.32,0,.48.05.48.11a2.22,2.22,0,0,1-1.16-.42l.05-.42c0-.32.05-.79.05-1.27a.76.76,0,0,0-.11-.37c0-.26,1.21-.53,3.54-.79V.69c-.11.05.16.05.85,0V.63c-.11.05.16.05.9,0V.58l-.21.11h.53L47,.58V.53l-.21.11H48.4c.05,0,.11-.05.21-.11l.16.11a5.77,5.77,0,0,1,.9-.05h.21c.21,0,.32-.05.32-.11L50,.58h.69c.05,0,.11-.05.16-.11A.91.91,0,0,1,51.2.53Zm1.74.58-.26-.05v.48l.26-.05Zm.42,1.53v.69h-.63V2.64Z"/><path class="cls-1" d="M48.27,22.92a10,10,0,0,1-6.94-2.86c-1.23-1-2.12-1.75-3.64-1.75S35.27,19,34,20.06a9.87,9.87,0,0,1-13.89,0c-1.23-1-2.12-1.75-3.64-1.75s-2.41.74-3.64,1.76a10,10,0,0,1-6.94,2.86,9.29,9.29,0,0,1-5.93-2l1.81-2.39a6.22,6.22,0,0,0,4.12,1.43c2.41,0,3.63-1,5-2.17s3-2.45,5.56-2.45,4.18,1.3,5.56,2.45,2.61,2.17,5,2.17,3.63-1,5-2.17,3-2.45,5.56-2.45,4.17,1.3,5.56,2.45,2.61,2.17,5,2.17a6.22,6.22,0,0,0,4.12-1.43l1.81,2.39A9.29,9.29,0,0,1,48.27,22.92Z"/><path class="cls-1" d="M48.27,28.76a10,10,0,0,1-6.94-2.86c-1.23-1-2.12-1.75-3.64-1.75s-2.41.74-3.64,1.76a9.87,9.87,0,0,1-13.89,0c-1.23-1-2.12-1.75-3.64-1.75s-2.41.74-3.64,1.76a10,10,0,0,1-6.94,2.86,9.29,9.29,0,0,1-5.93-2l1.81-2.39a6.22,6.22,0,0,0,4.12,1.43c2.41,0,3.63-1,5-2.17s3-2.45,5.56-2.45,4.18,1.3,5.56,2.45,2.61,2.17,5,2.17,3.63-1,5-2.17,3-2.45,5.56-2.45,4.17,1.3,5.56,2.45,2.61,2.17,5,2.17a6.22,6.22,0,0,0,4.12-1.43l1.81,2.39A9.29,9.29,0,0,1,48.27,28.76Z"/></g></g></svg>