<svg xmlns="http://www.w3.org/2000/svg" viewBox="0 0 54.49 28.65"><defs><style>.cls-1{fill:#1338d1;}.cls-2{fill:#ff5059;}</style></defs><title>Asset 7</title><g id="Layer_2" data-name="Layer 2"><g id="Layer_1-2" data-name="Layer 1"><path class="cls-1" d="M48.27,17a10,10,0,0,1-6.94-2.86c-1.23-1-2.12-1.76-3.64-1.76s-2.41.74-3.64,1.75a9.87,9.87,0,0,1-13.89,0c-1.23-1-2.12-1.76-3.64-1.76s-2.41.74-3.64,1.75A10,10,0,0,1,5.93,17a9.29,9.29,0,0,1-5.93-2l1.81-2.39A6.22,6.22,0,0,0,5.93,14c2.42,0,3.63-1,5-2.17s2.95-2.45,5.56-2.45,4.18,1.3,5.56,2.45S24.69,14,27.1,14s3.63-1,5-2.17,3-2.45,5.56-2.45,4.18,1.3,5.56,2.45,2.61,2.17,5,2.17a6.22,6.22,0,0,0,4.12-1.43l1.81,2.39A9.29,9.29,0,0,1,48.27,17Z"/><path class="cls-2" d="M7.26,1.11H7q0-.32.48-.32a11.19,11.19,0,0,1,5.13,1.8,4.32,4.32,0,0,1,2,3.54v.26c0,1.9-2.06,3.43-6.23,4.6h.11v.58c0,.05.05.11.11.21s-.11.21-.11.26a.23.23,0,0,1,.05.16v1.59l.16.53h.05l-.16-.21v.48l.11.69h.11l-.11-.21v.21c0,.21,0,.32.11.32-.05-.05-.05.05-.05.37v.32c0,1.43-.26,2.17-.69,2.17H7.63c0-.05.16-.05.48-.05a2.63,2.63,0,0,1-.58.05c0-.11.05-.11.16-.11-.11,0-.26.05-.53.05,0-.11-.16-.26-.48-.37v.32H6a9.65,9.65,0,0,1-.69-3c0-.21,0-.32.05-.32-.05-1.11-.16-1.64-.26-1.64l.16-.53c-.05-1.48-.05-2.38-.05-2.75a.5.5,0,0,1-.11-.37V9.56a1.22,1.22,0,0,1,.11-.48V8.61a6.12,6.12,0,0,1,.05-.9c0,.16-.05.21-.11.21a12.89,12.89,0,0,0,.16-1.59l-.11-.58h.16V5.71l.05-.26-.05-.11c.32-3,.9-4.54,1.74-4.54A.45.45,0,0,0,7.26,1.11ZM8.42,6.66H8.37c0-.32.05-.48.11-.48-.05.63-.11,1.06-.11,1.27v.16a.11.11,0,0,1,.11-.11l-.11.58v.53a7.63,7.63,0,0,0,3.54-1.74.78.78,0,0,0,.42-.69c0-1-.85-1.9-2.59-2.64a6.46,6.46,0,0,0-1-.37A17.47,17.47,0,0,0,8.42,6.66Z"/><path class="cls-2" d="M19.88.79A9.3,9.3,0,0,1,24.8,2.27c1.74,1.22,2.59,2.59,2.59,4.07V6.5c0,1.8-1.74,3.7-5.23,5.76a15.86,15.86,0,0,0-1.64,1.37,24.5,24.5,0,0,0,3.65,1.53c2.11.9,3.17,1.74,3.17,2.43l-.32.16h.05v.05h-.53l-.21.11c-.11-.05-.16-.11-.21-.11h.05c0-.11.21.05.74.53-.32,0-.48.05-.48.21A31.85,31.85,0,0,0,22,16.75c-1.9-.79-2.85-1.16-2.8-1.11v-.58a8.69,8.69,0,0,1,.26,1.85h.11l-.11-.21v1.16a.73.73,0,0,0-.26.53l-1-.16c-.11,0-.26.05-.53.05,0-.21,0-.26.05-.26.21,0,.32.05.32.11L17.45,18h.21a.48.48,0,0,1-.53.42A8.25,8.25,0,0,1,16,13.58c-.05,0-.05-.32-.05-1h-.11l.11.21v-.53c0-.21-.05-.32-.11-.32l.11.21V10.67a2.37,2.37,0,0,1,.05-.58.4.4,0,0,1-.05-.26c0-.21.05-.48.05-.69V9c0-.21,0-.32.05-.32,0,.32-.05.48-.11.48.21-1.85.26-2.85.26-3.06a1,1,0,0,1-.05-.48c.11,0,.21-.16.21-.37l-.05-.16A18.79,18.79,0,0,1,17.19,1C17.72,1,18,1,18,1A7,7,0,0,1,19.67.79Zm-.74,6.08c0-.16.05-.21.11-.21l-.16,1.48c0-.16.05-.21.11-.21L19,9.25c.05.05.05.16.05.37L19,9.93l.11.16a.65.65,0,0,1-.11.16c0-.11.05-.21.11-.21l-.11.58v1.32a11.21,11.21,0,0,1,2.91-2.17A17.93,17.93,0,0,0,24.69,7.5a2.22,2.22,0,0,0,.48-1.22,2.21,2.21,0,0,0-.69-1.43A6.58,6.58,0,0,0,20.84,3c-.21,0-.63,0-1.21-.05Q19.38,4.33,19.15,6.87Z"/><path class="cls-2" d="M32.25.21,32,.69c0-.05.21.11.69.42,0,.11.26.21.9.37V2l-.05.21h1.27c2.75,0,4.49.32,5.18.9a1.27,1.27,0,0,1-.21.79c-.21,0-.21.16-.05.53a2.2,2.2,0,0,1-1.21.37,22.63,22.63,0,0,0-4.28-.37l-.16.11a.89.89,0,0,0-.26-.11h-.74c.11,0,0,.69-.26,2A31.37,31.37,0,0,0,31.72,14h-.16a15.77,15.77,0,0,1,2.8-.69,10.61,10.61,0,0,1,2.17-.21l.05.05.05-.05c1.21,0,2,.21,2.22.58-.21.79-.42,1.27-.69,1.43,0-.05.11-.05.42-.05v.63a35.6,35.6,0,0,1-4.81.9q-1.67.24-4.76,2.54H28.6v-.53c0,.11-.05.11-.05.11,0-.42,0-.63.05-.63-.05-.79-.05-1.37-.05-1.85V14.64a39.2,39.2,0,0,1,.85-6.92,1.19,1.19,0,0,1-.05-.53c.16,0,.26-.21.26-.69.11,0,.16-.37.32-1.06a7.69,7.69,0,0,0,.32-1h.21c-.42,0-.69-.16-.74-.48a4,4,0,0,0,.21-1.53c.48,0,.74-.05.74-.11A3.85,3.85,0,0,1,31.46.21,1.52,1.52,0,0,0,32,0C32,.16,32.09.21,32.25.21Zm7.29,7.5A6.19,6.19,0,0,1,39.28,9V9l.11.21v.26a2.3,2.3,0,0,1-2,.74v.11c.16-.05.21-.11.11-.11s-.63,0-1.48.05h-.05a3.56,3.56,0,0,0-.53.05h-.58v.11l.21-.11-.26-.05-.05.05h-.42l-1.22.11v-.11c.32,0,.48,0,.48.05-.58,0-1-.16-1.16-.48l.05-.48v-1c0-.21-.05-.32-.11-.32l.11.21V7.87q0-.4,3-.63c0-.05.21-.05.63-.05V7.08l-.21.11c.37,0,1.27-.05,2.75-.16A.87.87,0,0,1,39.54,7.71Z"/><path class="cls-2" d="M53,.16a7.31,7.31,0,0,0,1.53,1.48l-2.64,4.7c-1.27,2.43-3,5.55-5.07,9.3-.79,2-1.43,2.91-2,2.91-.53-.32-.74-.42-.74-.37l-.16.05c0-.37.05-.58.11-.58h-.11q.08,0-.32.48l-.26-.53a5.14,5.14,0,0,1,.05-.79,10.46,10.46,0,0,1-1.16-3.06c-.26-1-.53-2.69-.85-5-.11,0-.11-.16-.11-.37l.05-.11-.11-.58c.05,0,.11.16.11.37L41.23,8c-.05-.9-.05-1.59-.05-2V5.55a1.68,1.68,0,0,1,.53-1.32H42a9.8,9.8,0,0,0,1.9.79l-.11.48v.69l.11.37a.76.76,0,0,1-.05.32c.53,3.33,1,5.39,1.16,6.24C45,13.05,46,11.2,48,7.5A11.4,11.4,0,0,0,49.42,5a2.14,2.14,0,0,0,.69-1.06A39.6,39.6,0,0,1,52.33.48L52.7.16Z"/><path class="cls-1" d="M48.27,22.81A10,10,0,0,1,41.33,20c-1.23-1-2.12-1.76-3.64-1.76S35.27,18.94,34,20a9.87,9.87,0,0,1-13.89,0c-1.23-1-2.12-1.76-3.64-1.76s-2.41.74-3.64,1.75a10,10,0,0,1-6.94,2.86,9.29,9.29,0,0,1-5.93-2l1.81-2.39a6.22,6.22,0,0,0,4.12,1.43c2.42,0,3.63-1,5-2.17s2.95-2.45,5.56-2.45,4.18,1.3,5.56,2.45,2.61,2.17,5,2.17,3.63-1,5-2.17,3-2.45,5.56-2.45,4.18,1.3,5.56,2.45,2.61,2.17,5,2.17a6.22,6.22,0,0,0,4.12-1.43l1.81,2.39A9.29,9.29,0,0,1,48.27,22.81Z"/><path class="cls-1" d="M48.27,28.65a10,10,0,0,1-6.94-2.86c-1.23-1-2.12-1.76-3.64-1.76s-2.41.74-3.64,1.75a9.87,9.87,0,0,1-13.89,0C18.93,24.78,18,24,16.51,24s-2.41.74-3.64,1.75a10,10,0,0,1-6.94,2.86,9.29,9.29,0,0,1-5.93-2l1.81-2.39a6.22,6.22,0,0,0,4.12,1.43c2.42,0,3.63-1,5-2.17S13.91,21,16.51,21s4.18,1.3,5.56,2.45,2.61,2.17,5,2.17,3.63-1,5-2.17,3-2.45,5.56-2.45,4.18,1.3,5.56,2.45,2.61,2.17,5,2.17a6.22,6.22,0,0,0,4.12-1.43l1.81,2.39A9.29,9.29,0,0,1,48.27,28.65Z"/></g></g></svg>