<svg xmlns="http://www.w3.org/2000/svg" viewBox="0 0 13.17 12.68"><defs><style>.cls-1{fill:#1338d1;}</style></defs><title>Asset 9</title><g id="Layer_2" data-name="Layer 2"><g id="Layer_1-2" data-name="Layer 1"><path class="cls-1" d="M8,.87l.83,1.69A1.55,1.55,0,0,0,10,3.4l1.86.27a1.55,1.55,0,0,1,.86,2.65L11.36,7.63A1.55,1.55,0,0,0,10.91,9l.32,1.86A1.55,1.55,0,0,1,9,12.5l-1.67-.88a1.55,1.55,0,0,0-1.44,0L4.2,12.5a1.55,1.55,0,0,1-2.25-1.64L2.26,9a1.55,1.55,0,0,0-.45-1.37L.47,6.32a1.55,1.55,0,0,1,.86-2.65L3.19,3.4a1.55,1.55,0,0,0,1.17-.85L5.2.87A1.55,1.55,0,0,1,8,.87Z"/></g></g></svg>