<svg xmlns="http://www.w3.org/2000/svg" viewBox="0 0 14.17 13.68"><defs><style>.cls-1{fill:#1338d1;}</style></defs><title>Asset 10</title><g id="Layer_2" data-name="Layer 2"><g id="Layer_1-2" data-name="Layer 1"><path class="cls-1" d="M10.2,13.68a2.06,2.06,0,0,1-1-.24l-1.67-.88a1.05,1.05,0,0,0-1,0l-1.67.88a2.05,2.05,0,0,1-3-2.16l.32-1.85A1.05,1.05,0,0,0,2,8.49L.62,7.18a2.05,2.05,0,0,1,1.14-3.5l1.86-.27a1.05,1.05,0,0,0,.79-.58l.83-1.69a2.05,2.05,0,0,1,3.68,0l.83,1.69a1.05,1.05,0,0,0,.79.58l1.86.27a2.05,2.05,0,0,1,1.14,3.5L12.2,8.49a1.05,1.05,0,0,0-.3.93l.32,1.86a2.06,2.06,0,0,1-2,2.4ZM7.09,11.45a2.05,2.05,0,0,1,1,.24l1.67.88a1.05,1.05,0,0,0,1.53-1.11l-.32-1.86a2.05,2.05,0,0,1,.59-1.82l1.35-1.31a1.05,1.05,0,0,0-.58-1.79L10.41,4.4A2.05,2.05,0,0,1,8.86,3.27L8,1.59a1.08,1.08,0,0,0-1.89,0L5.31,3.27A2.05,2.05,0,0,1,3.76,4.4L1.9,4.67a1.05,1.05,0,0,0-.58,1.79L2.67,7.78a2.05,2.05,0,0,1,.59,1.82l-.32,1.85a1.05,1.05,0,0,0,1.53,1.11l1.67-.88A2.06,2.06,0,0,1,7.09,11.45Z"/></g></g></svg>