<svg xmlns="http://www.w3.org/2000/svg" viewBox="0 0 285.57 131.82"><defs><style>.cls-1{fill:#1338d1;}</style></defs><title>Asset 12</title><g id="Layer_2" data-name="Layer 2"><g id="Layer_1-2" data-name="Layer 1"><path class="cls-1" d="M285.57,0c-7.41,0-8.44,7.77-17.85,7.77S257.29,0,249.88,0,241.44,7.77,232,7.77,221.59,0,214.18,0s-8.44,7.77-17.85,7.77S185.9,0,178.48,0,170,7.77,160.64,7.77,150.2,0,142.79,0s-8.44,7.77-17.85,7.77S114.5,0,107.09,0,98.65,7.77,89.24,7.77,78.81,0,71.39,0,63,7.77,53.55,7.77,43.11,0,35.7,0,27.26,7.77,17.85,7.77,7.41,0,0,0V131.82H285.57Z"/></g></g></svg>