<svg xmlns="http://www.w3.org/2000/svg" viewBox="0 0 489.87 445.3"><defs><style>.cls-1{fill:#fff;}</style></defs><title>Asset 13</title><g id="Layer_2" data-name="Layer 2"><g id="Layer_1-2" data-name="Layer 1"><path class="cls-1" d="M489.87,445.3V0H0C0,7.7,8.08,8.78,8.08,18.55S0,29.4,0,37.11s8.08,8.78,8.08,18.55S0,66.51,0,74.22,8.08,83,8.08,92.77,0,103.62,0,111.32s8.08,8.78,8.08,18.55S0,140.73,0,148.43,8.08,157.21,8.08,167,0,177.84,0,185.54s8.08,8.78,8.08,18.55S0,214.94,0,222.65s8.08,8.78,8.08,18.55S0,252.05,0,259.76s8.08,8.78,8.08,18.55S0,289.16,0,296.87s8.08,8.78,8.08,18.55S0,326.27,0,334s8.08,8.78,8.08,18.55S0,363.38,0,371.08s8.08,8.78,8.08,18.55S0,400.49,0,408.19,8.08,417,8.08,426.74,0,437.59,0,445.3Z"/></g></g></svg>